<svg width="65" height="62" viewBox="0 0 65 62" fill="none" xmlns="http://www.w3.org/2000/svg">
<circle cx="8" cy="54.0015" r="8" fill="#FDDB00" fill-opacity="0.5"/>
<circle cx="27.5" cy="33.5015" r="27.5" fill="#0096C7"/>
<circle cx="47.5" cy="17.5015" r="17.5" fill="#0096C7" fill-opacity="0.25"/>
<path d="M26.4112 41.2261C25.3684 42.2599 23.6764 42.2599 22.6341 41.2261L16.7821 35.4244C15.7393 34.3911 15.7393 32.7136 16.7821 31.6803C17.8244 30.6465 19.5164 30.6465 20.5591 31.6803L24.0458 35.1365C24.309 35.397 24.7363 35.397 25 35.1365L34.4409 25.7768C35.4831 24.743 37.1751 24.743 38.2179 25.7768C38.7187 26.2733 39 26.9468 39 27.6489C39 28.3509 38.7187 29.0244 38.2179 29.5209L26.4112 41.2261Z" fill="white"/>
</svg>
