<svg width="166" height="168" viewBox="0 0 166 168" fill="none" xmlns="http://www.w3.org/2000/svg">
<path d="M17.16 143.25C16.39 144.22 15.49 144.97 14.45 145.48C13.42 146 12.25 146.26 10.93 146.26C9.72 146.26 8.61 146.02 7.61 145.56C6.6 145.09 5.74 144.46 5.02 143.66C4.31 142.86 3.74 141.92 3.34 140.84C2.93 139.75 2.73 138.58 2.73 137.33C2.73 136.15 2.93 135.03 3.34 133.94C3.74 132.86 4.31 131.91 5.04 131.09C5.77 130.27 6.63 129.62 7.64 129.13C8.64 128.64 9.74 128.4 10.93 128.4C11.96 128.4 12.96 128.62 13.91 129.05C14.86 129.49 15.66 130.14 16.31 131.01L18.52 129.4C17.61 128.21 16.48 127.35 15.14 126.82C13.79 126.29 12.39 126.03 10.93 126.03C9.33 126.03 7.86 126.33 6.53 126.91C5.19 127.5 4.04 128.3 3.07 129.31C2.09 130.32 1.34 131.52 0.8 132.89C0.27 134.27 0 135.75 0 137.33C0 138.91 0.28 140.48 0.83 141.85C1.39 143.23 2.16 144.42 3.14 145.42C4.12 146.42 5.28 147.21 6.62 147.77C7.95 148.34 9.39 148.63 10.93 148.63C12.65 148.63 14.2 148.32 15.56 147.71C16.93 147.11 18.1 146.16 19.07 144.86L17.16 143.25Z" fill="#1B1464"/>
<path d="M45.2904 132.82C44.7304 131.43 43.9604 130.24 42.9504 129.24C41.9504 128.23 40.7704 127.45 39.4004 126.88C38.0304 126.32 36.5304 126.03 34.8904 126.03C33.2504 126.03 31.7504 126.32 30.3804 126.88C29.0104 127.45 27.8304 128.23 26.8304 129.24C25.8304 130.24 25.0504 131.43 24.4904 132.82C23.9304 134.21 23.6504 135.71 23.6504 137.33C23.6504 138.95 23.9304 140.45 24.4904 141.84C25.0504 143.23 25.8304 144.42 26.8304 145.42C27.8304 146.42 29.0104 147.21 30.3804 147.77C31.7504 148.34 33.2504 148.63 34.8904 148.63C36.5304 148.63 38.0304 148.34 39.4004 147.77C40.7704 147.21 41.9504 146.42 42.9504 145.42C43.9604 144.42 44.7304 143.23 45.2904 141.84C45.8504 140.45 46.1304 138.95 46.1304 137.33C46.1304 135.71 45.8504 134.21 45.2904 132.82ZM42.7704 140.81C42.3604 141.89 41.7704 142.84 41.0304 143.65C40.2804 144.45 39.3804 145.09 38.3404 145.56C37.2904 146.02 36.1504 146.26 34.8904 146.26C33.6304 146.26 32.4904 146.02 31.4404 145.56C30.4004 145.09 29.5104 144.45 28.7604 143.65C28.0104 142.84 27.4304 141.89 27.0104 140.81C26.6004 139.72 26.3904 138.56 26.3904 137.33C26.3904 136.1 26.6004 134.93 27.0104 133.85C27.4304 132.77 28.0104 131.82 28.7604 131.01C29.5104 130.2 30.4004 129.57 31.4404 129.1C32.4904 128.63 33.6404 128.4 34.8904 128.4C36.1404 128.4 37.2904 128.63 38.3404 129.1C39.3804 129.57 40.2804 130.2 41.0304 131.01C41.7704 131.82 42.3604 132.77 42.7704 133.85C43.1904 134.93 43.3904 136.09 43.3904 137.33C43.3904 138.57 43.1904 139.72 42.7704 140.81Z" fill="#1B1464"/>
<path d="M71 126.58L63.65 143.43H63.59L56.3 126.58H52.5V148.08H55.05V130.04H55.12L62.83 148.08H64.38L72.09 130.04H72.15V148.08H74.7V126.58H71Z" fill="#1B1464"/>
<path d="M95.6101 129.66C95.2001 128.9 94.6401 128.29 93.9401 127.84C93.2401 127.38 92.4401 127.06 91.5401 126.87C90.6401 126.67 89.6901 126.58 88.7001 126.58H82.3301V148.08H84.8801V138.42H89.1901C89.9401 138.42 90.7301 138.33 91.5601 138.15C92.3901 137.97 93.1501 137.65 93.8501 137.21C94.5501 136.76 95.1201 136.15 95.5701 135.39C96.0101 134.62 96.2301 133.64 96.2301 132.47C96.2301 131.3 96.0301 130.42 95.6101 129.66ZM92.3001 135.19C91.5001 135.76 90.4601 136.05 89.1901 136.05H84.8801V128.95H89.1901C90.4601 128.95 91.5001 129.24 92.3001 129.81C93.1001 130.39 93.5001 131.29 93.5001 132.5C93.5001 133.71 93.1001 134.61 92.3001 135.19Z" fill="#1B1464"/>
<path d="M109.75 126.58H107.35L97.8701 148.08H100.76L102.98 142.8H113.72L115.91 148.08H118.89L109.75 126.58ZM103.98 140.43L108.44 129.86H108.5L112.75 140.43H103.98Z" fill="#1B1464"/>
<path d="M139.75 126.58V144.43H139.69L127.24 126.58H124.02V148.08H126.57V130.22H126.63L139.08 148.08H142.3V126.58H139.75Z" fill="#1B1464"/>
<path d="M162.5 126.58L156.27 136.3L150.23 126.58H146.98L155 138.82V148.08H157.55V138.82L165.56 126.58H162.5Z" fill="#1B1464"/>
<path d="M53.2395 163.08C53.0595 162.75 52.8195 162.48 52.5395 162.27C52.2495 162.05 51.9295 161.88 51.5695 161.74C51.2195 161.61 50.8595 161.49 50.5095 161.37C50.2195 161.28 49.9495 161.18 49.6895 161.08C49.4295 160.99 49.1895 160.87 48.9895 160.72C48.7795 160.57 48.6195 160.39 48.4995 160.18C48.3695 159.97 48.3095 159.7 48.3095 159.38C48.3095 159.06 48.3695 158.77 48.4995 158.54C48.6295 158.3 48.7995 158.1 49.0095 157.94C49.2195 157.78 49.4595 157.67 49.7095 157.59C49.9695 157.51 50.2195 157.48 50.4695 157.48C50.9595 157.48 51.3795 157.57 51.7195 157.75C52.0595 157.94 52.3395 158.19 52.5595 158.49L53.3795 157.83C53.1295 157.5 52.7695 157.21 52.2795 156.97C51.7895 156.72 51.1995 156.6 50.5195 156.6C50.1395 156.6 49.7695 156.65 49.3795 156.76C48.9995 156.86 48.6495 157.03 48.3395 157.26C48.0195 157.49 47.7695 157.78 47.5695 158.13C47.3795 158.49 47.2795 158.91 47.2795 159.39C47.2795 159.87 47.3595 160.24 47.5195 160.55C47.6695 160.87 47.8795 161.13 48.1395 161.35C48.3995 161.56 48.6895 161.74 49.0095 161.87C49.3395 162.01 49.6695 162.13 49.9995 162.23C50.3195 162.34 50.6395 162.44 50.9295 162.55C51.2295 162.65 51.4895 162.78 51.7195 162.94C51.9495 163.1 52.1295 163.29 52.2695 163.53C52.4095 163.76 52.4795 164.06 52.4795 164.41C52.4795 164.73 52.4095 165.02 52.2695 165.26C52.1295 165.5 51.9595 165.71 51.7395 165.88C51.5295 166.04 51.2795 166.17 51.0195 166.25C50.7495 166.33 50.4895 166.37 50.2295 166.37C49.6895 166.37 49.2295 166.25 48.8295 166C48.4395 165.76 48.1295 165.46 47.9095 165.1L47.0195 165.75C47.1995 166 47.4095 166.22 47.6495 166.41C47.8895 166.6 48.1495 166.76 48.4195 166.89C48.6995 167.01 48.9895 167.1 49.2995 167.17C49.5995 167.23 49.9095 167.26 50.2195 167.26C50.6195 167.26 51.0095 167.2 51.4095 167.09C51.8095 166.97 52.1595 166.8 52.4695 166.56C52.7795 166.32 53.0295 166.01 53.2195 165.65C53.4095 165.28 53.5095 164.84 53.5095 164.34C53.5095 163.84 53.4195 163.41 53.2395 163.08Z" fill="url(#paint0_linear_28_670)"/>
<path d="M59.6298 166.08V156.86H58.5898V167H64.3498V166.08H59.6298Z" fill="url(#paint1_linear_28_670)"/>
<path d="M77.9591 159.8C77.6891 159.15 77.3191 158.58 76.8491 158.11C76.3791 157.64 75.8191 157.27 75.1691 157C74.5291 156.74 73.8291 156.6 73.0791 156.6C72.3291 156.6 71.6191 156.74 70.9791 157C70.3291 157.27 69.7691 157.64 69.2991 158.11C68.8291 158.58 68.4591 159.15 68.1891 159.8C67.9191 160.45 67.7891 161.16 67.7891 161.93C67.7891 162.7 67.9191 163.41 68.1891 164.06C68.4591 164.71 68.8291 165.27 69.2991 165.75C69.7691 166.22 70.3291 166.59 70.9791 166.86C71.6191 167.12 72.3191 167.26 73.0791 167.26C73.8391 167.26 74.5291 167.12 75.1691 166.86C75.8191 166.59 76.3791 166.22 76.8491 165.75C77.3191 165.27 77.6891 164.71 77.9591 164.06C78.2291 163.41 78.3591 162.7 78.3591 161.93C78.3591 161.16 78.2291 160.45 77.9591 159.8ZM76.9891 163.62C76.7991 164.16 76.5191 164.63 76.1591 165.03C75.7891 165.43 75.3491 165.75 74.8291 165.98C74.3091 166.22 73.7291 166.34 73.0791 166.34C72.4291 166.34 71.8391 166.22 71.3191 165.98C70.7991 165.75 70.3591 165.43 69.9991 165.03C69.6291 164.63 69.3591 164.16 69.1691 163.62C68.9691 163.09 68.8791 162.53 68.8791 161.94C68.8791 161.35 68.9691 160.78 69.1691 160.25C69.3591 159.72 69.6291 159.25 69.9991 158.84C70.3591 158.44 70.7991 158.11 71.3191 157.88C71.8391 157.64 72.4291 157.52 73.0791 157.52C73.7291 157.52 74.3091 157.64 74.8291 157.88C75.3491 158.11 75.7891 158.44 76.1591 158.84C76.5191 159.25 76.7991 159.72 76.9891 160.25C77.1791 160.78 77.2691 161.35 77.2691 161.94C77.2691 162.53 77.1791 163.09 76.9891 163.62Z" fill="url(#paint2_linear_28_670)"/>
<path d="M88.4991 161.69V162.6H90.8691V165.68C90.5691 165.87 90.1791 166.03 89.7091 166.16C89.2291 166.28 88.6991 166.34 88.1291 166.34C87.4791 166.34 86.8991 166.22 86.3791 165.98C85.8591 165.75 85.4091 165.43 85.0491 165.03C84.6891 164.63 84.4091 164.16 84.2091 163.62C84.0191 163.09 83.9191 162.53 83.9191 161.94C83.9191 161.35 84.0191 160.78 84.2091 160.25C84.4091 159.72 84.6891 159.25 85.0491 158.84C85.4091 158.44 85.8591 158.11 86.3791 157.88C86.8991 157.64 87.4791 157.52 88.1291 157.52C88.7791 157.52 89.3191 157.62 89.8091 157.83C90.2891 158.03 90.7091 158.32 91.0691 158.69L91.7791 157.98C91.3491 157.55 90.8391 157.21 90.2391 156.97C89.6291 156.72 88.9291 156.6 88.1191 156.6C87.3591 156.6 86.6591 156.74 86.0191 157C85.3691 157.27 84.8091 157.64 84.3391 158.11C83.8691 158.58 83.4991 159.15 83.2291 159.8C82.9591 160.45 82.8291 161.16 82.8291 161.93C82.8291 162.7 82.9591 163.41 83.2191 164.06C83.4891 164.71 83.8491 165.27 84.3191 165.75C84.7891 166.22 85.3491 166.59 85.9991 166.86C86.6491 167.12 87.3491 167.26 88.1191 167.26C88.7991 167.26 89.4691 167.18 90.1091 167.01C90.7491 166.85 91.3391 166.6 91.8991 166.27V161.69H88.4991Z" fill="url(#paint3_linear_28_670)"/>
<path d="M101.579 156.86H100.579L96.1895 167H97.3295L98.4295 164.34H103.669L104.789 167H105.939L101.579 156.86ZM98.8195 163.39L101.049 158L103.289 163.39H98.8195Z" fill="url(#paint4_linear_28_670)"/>
<path d="M117.509 156.86V165.5H117.479L111.579 156.86H110.289V167H111.319V158.28H111.349L117.249 167H118.539V156.86H117.509Z" fill="url(#paint5_linear_28_670)"/>
<path d="M72.1302 77.2701L71.0002 74.4001C69.4302 70.3901 66.2502 67.2101 62.2402 65.6401L59.3702 64.5101L58.1802 64.0501L51.4602 61.4101L50.0202 60.8401L43.1602 58.1501L37.5202 55.9401C36.6002 55.5401 36.1402 54.8601 36.1402 53.9101C36.1402 53.8801 36.1402 53.8701 36.1502 53.8501C36.1402 53.8301 36.1402 53.8101 36.1402 53.7901C36.1402 52.8301 36.6002 52.1501 37.5202 51.7601L43.1602 49.5401L50.0202 46.8501L51.4602 46.2901L48.6902 39.9401L48.5802 39.6801L41.9602 42.2801L34.1102 45.3601C32.2002 46.1201 30.8502 47.1901 30.0802 48.5601C29.3002 49.9301 28.9102 51.7001 28.9102 53.8501C28.9102 56.0001 29.3002 57.7601 30.0802 59.1401C30.8502 60.5101 32.2002 61.5801 34.1102 62.3301L41.9602 65.4101L48.5802 68.0101L48.8402 68.1101L55.2902 70.6401L56.6702 71.1801C60.6802 72.7601 63.8502 75.9301 65.4302 79.9401L65.9702 81.3201L72.5802 78.4401L72.1202 77.2501L72.1302 77.2701Z" fill="url(#paint6_linear_28_670)"/>
<path d="M123.18 82.26L119.82 74.53L116.98 68.02L116.87 67.76L114.1 61.41L111.18 62.56L114.11 61.41L113.51 60.05C111.79 56.1 111.79 51.61 113.51 47.66L114.11 46.3L107.39 43.67L106.88 44.83L105.65 47.65C103.92 51.61 103.92 56.11 105.65 60.06L106.88 62.88L107.39 64.05L110.28 70.66L110.89 72.07L113.85 78.83L116.27 84.38C116.63 85.3 116.48 86.11 115.8 86.79L115.76 86.83C115.76 86.83 115.74 86.8601 115.72 86.87C115.04 87.55 114.24 87.7 113.31 87.34L107.76 84.91L101 81.96L99.5902 81.34L97.0602 87.79L96.9502 88.05L103.47 90.89L111.2 94.26C113.08 95.08 114.79 95.28 116.31 94.85C117.83 94.43 119.35 93.46 120.87 91.94C122.39 90.42 123.37 88.9 123.79 87.38C124.21 85.86 124.01 84.15 123.19 82.26H123.18Z" fill="url(#paint7_linear_28_670)"/>
<path d="M94.3398 13.05L91.2598 5.2C90.5098 3.29 89.4398 1.94 88.0698 1.17C86.6898 0.39 84.9298 0 82.7798 0C80.6298 0 78.8698 0.39 77.4898 1.17C76.1198 1.94 75.0498 3.29 74.2998 5.2L71.2098 13.05L68.6198 19.66L68.5198 19.92L65.9898 26.37L65.4498 27.75C63.8698 31.76 60.6998 34.93 56.6898 36.51L55.2998 37.06L58.1898 43.67L59.3798 43.2L62.2398 42.08C66.2598 40.51 69.4398 37.33 71.0098 33.31L72.1398 30.44L72.5998 29.26L75.2298 22.54L75.7998 21.11L78.4898 14.24L80.6998 8.6C81.0998 7.69 81.7698 7.23 82.7298 7.23H82.8498C83.8098 7.23 84.4798 7.69 84.8798 8.6L87.0898 14.24L89.7898 21.11L90.3498 22.54L96.6998 19.78L96.9498 19.66L94.3498 13.05H94.3398Z" fill="url(#paint8_linear_28_670)"/>
<path d="M123.78 20.3398C123.36 18.8198 122.38 17.2998 120.86 15.7798C119.34 14.2498 117.82 13.2798 116.3 12.8598C114.78 12.4398 113.07 12.6398 111.19 13.4498L103.46 16.8198L96.9398 19.6598L96.6898 19.7798L90.3398 22.5398L88.9698 23.1398C85.0298 24.8598 80.5398 24.8598 76.5898 23.1398L75.2198 22.5398L72.5898 29.2598L73.7598 29.7698L76.5798 30.9998C80.5298 32.7298 85.0299 32.7298 88.9799 30.9998L91.8098 29.7698L92.9698 29.2598L99.5798 26.3698L97.0499 19.9198L96.9898 19.7798L97.0499 19.9298L99.5798 26.3698L100.99 25.7598L107.75 22.7998L113.3 20.3798C114.23 20.0198 115.03 20.1698 115.71 20.8498C115.72 20.8598 115.74 20.8698 115.75 20.8898C115.76 20.8998 115.78 20.9098 115.79 20.9298C116.47 21.6098 116.62 22.4098 116.26 23.3398L113.84 28.8898L110.88 35.6498L110.27 37.0598L116.71 39.5898L116.98 39.6898L119.81 33.1798L123.19 25.4498C124 23.5598 124.2 21.8598 123.78 20.3398Z" fill="url(#paint9_linear_28_670)"/>
<path d="M135.47 48.5701C134.7 47.2001 133.35 46.1301 131.44 45.3701L123.59 42.2901L116.98 39.6901L116.9 39.8501L116.97 39.6901L116.71 39.5901L110.27 37.0601L108.88 36.5101C104.87 34.9301 101.7 31.7601 100.12 27.7501L99.5797 26.3701L92.9697 29.2601L93.4297 30.4401L94.5597 33.3101C96.1297 37.3301 99.3097 40.5101 103.33 42.0801L106.19 43.2001L107.38 43.6701L114.1 46.3001L115.76 42.5001L114.11 46.3001L115.54 46.8601L122.4 49.5501L128.05 51.7701C128.96 52.1601 129.42 52.8401 129.42 53.8001C129.42 53.8201 129.42 53.8401 129.41 53.8601C129.42 53.8801 129.42 53.8901 129.42 53.9201C129.42 54.8701 128.96 55.5501 128.05 55.9501L122.4 58.1601L115.54 60.8501L114.11 61.4101L116.88 67.7601L116.99 68.0201L123.6 65.4201L131.45 62.3401C133.36 61.5901 134.71 60.5201 135.48 59.1501C136.26 57.7701 136.65 56.0101 136.65 53.8601C136.65 51.7101 136.26 49.9401 135.48 48.5701H135.47Z" fill="url(#paint10_linear_28_670)"/>
<path d="M91.7998 77.95L88.9798 76.71C85.0198 74.99 80.5298 74.99 76.5798 76.71L73.7598 77.95L72.5898 78.46L65.9798 81.34L64.5698 81.96L57.8098 84.91L52.2598 87.33C51.3298 87.7 50.5298 87.55 49.8498 86.87C49.8398 86.86 49.8198 86.84 49.8098 86.83C49.8098 86.82 49.7798 86.8 49.7698 86.79C49.0898 86.11 48.9398 85.3 49.2998 84.38L51.7298 78.83L54.6798 72.06L55.2998 70.66L48.8498 68.12L48.5898 68.02L45.7398 74.53L42.3798 82.26C41.5598 84.15 41.3598 85.85 41.7798 87.38C42.2098 88.9 43.1798 90.42 44.6998 91.94C46.2198 93.46 47.7398 94.43 49.2598 94.85C50.7798 95.28 52.4898 95.08 54.3698 94.26L62.0998 90.89L68.6198 88.05L68.8798 87.94L75.2298 85.17L76.5898 84.58C80.5398 82.86 85.0198 82.86 88.9698 84.58L90.3398 85.17L92.9698 78.46L91.7998 77.95Z" fill="url(#paint11_linear_28_670)"/>
<path d="M62.1002 16.82L54.3702 13.45C52.4902 12.64 50.7802 12.44 49.2602 12.86C47.7402 13.28 46.2202 14.25 44.7002 15.78C43.1802 17.3 42.2102 18.82 41.7802 20.34C41.3602 21.86 41.5602 23.56 42.3702 25.45L45.7502 33.18L48.5902 39.69L48.7002 39.95L51.4702 46.3L54.7202 45.03L51.4802 46.3L52.0702 47.67C53.7902 51.62 53.7902 56.1 52.0702 60.05L51.4802 61.41L58.1902 64.05L58.7002 62.88L59.9302 60.06C61.6602 56.11 61.6602 51.62 59.9402 47.66L58.7002 44.84L58.1902 43.67L55.3002 37.05L54.6902 35.64L51.7402 28.88L49.3102 23.33C48.9502 22.4 49.1002 21.6 49.7802 20.92C49.7902 20.9 49.8102 20.89 49.8202 20.88C49.8302 20.86 49.8502 20.85 49.8602 20.84C50.5402 20.16 51.3402 20.01 52.2702 20.37L57.8202 22.79L64.5802 25.75L65.9902 26.36L68.5302 19.92L68.6302 19.65L62.1102 16.81L62.1002 16.82Z" fill="url(#paint12_linear_28_670)"/>
<path d="M107.38 64.05L106.19 64.51L103.32 65.64C99.3101 67.21 96.1301 70.39 94.5601 74.4L93.4301 77.27L92.9701 78.46L90.3401 85.17L89.7801 86.6L87.0801 93.47L84.8701 99.11C84.4701 100.02 83.8001 100.49 82.8401 100.49C82.8201 100.49 82.8001 100.49 82.7801 100.49C82.7601 100.49 82.7401 100.49 82.7201 100.49C81.7601 100.49 81.0901 100.02 80.6901 99.11L78.4801 93.47L75.7901 86.6L75.2301 85.17L68.8701 87.94L68.6201 88.05L71.2101 94.67L74.3001 102.51C75.0501 104.43 76.1201 105.77 77.4901 106.55C78.8701 107.33 80.6301 107.71 82.7801 107.71C84.9301 107.71 86.6901 107.33 88.0701 106.55C89.4401 105.77 90.5101 104.43 91.2601 102.51L94.3401 94.67L96.9401 88.05L97.0401 87.79L99.5701 81.34L100.11 79.96C101.69 75.95 104.86 72.78 108.87 71.2L110.26 70.66L107.37 64.05H107.38Z" fill="url(#paint13_linear_28_670)"/>
<defs>
<linearGradient id="paint0_linear_28_670" x1="47.0195" y1="161.93" x2="53.5095" y2="161.93" gradientUnits="userSpaceOnUse">
<stop stop-color="#93D8DE"/>
<stop offset="1" stop-color="#65C8D0"/>
</linearGradient>
<linearGradient id="paint1_linear_28_670" x1="58.5898" y1="161.93" x2="64.3498" y2="161.93" gradientUnits="userSpaceOnUse">
<stop stop-color="#93D8DE"/>
<stop offset="1" stop-color="#65C8D0"/>
</linearGradient>
<linearGradient id="paint2_linear_28_670" x1="67.7891" y1="161.93" x2="78.3591" y2="161.93" gradientUnits="userSpaceOnUse">
<stop stop-color="#93D8DE"/>
<stop offset="1" stop-color="#65C8D0"/>
</linearGradient>
<linearGradient id="paint3_linear_28_670" x1="82.8291" y1="161.93" x2="91.8991" y2="161.93" gradientUnits="userSpaceOnUse">
<stop stop-color="#93D8DE"/>
<stop offset="1" stop-color="#65C8D0"/>
</linearGradient>
<linearGradient id="paint4_linear_28_670" x1="96.1895" y1="161.93" x2="105.939" y2="161.93" gradientUnits="userSpaceOnUse">
<stop stop-color="#93D8DE"/>
<stop offset="1" stop-color="#65C8D0"/>
</linearGradient>
<linearGradient id="paint5_linear_28_670" x1="110.289" y1="161.93" x2="118.539" y2="161.93" gradientUnits="userSpaceOnUse">
<stop stop-color="#93D8DE"/>
<stop offset="1" stop-color="#65C8D0"/>
</linearGradient>
<linearGradient id="paint6_linear_28_670" x1="64.6902" y1="78.4301" x2="34.8602" y2="44.4101" gradientUnits="userSpaceOnUse">
<stop stop-color="#221ECA"/>
<stop offset="1" stop-color="#6461DA"/>
</linearGradient>
<linearGradient id="paint7_linear_28_670" x1="110.65" y1="87.71" x2="105.06" y2="54.63" gradientUnits="userSpaceOnUse">
<stop stop-color="#93D8DE"/>
<stop offset="1" stop-color="#65C8D0"/>
</linearGradient>
<linearGradient id="paint8_linear_28_670" x1="62.0198" y1="40.35" x2="91.1398" y2="5.39" gradientUnits="userSpaceOnUse">
<stop stop-color="#221ECA"/>
<stop offset="1" stop-color="#6461DA"/>
</linearGradient>
<linearGradient id="paint9_linear_28_670" x1="120.48" y1="18.9198" x2="85.5298" y2="36.3998" gradientUnits="userSpaceOnUse">
<stop stop-color="#93D8DE"/>
<stop offset="1" stop-color="#65C8D0"/>
</linearGradient>
<linearGradient id="paint10_linear_28_670" x1="92.9697" y1="47.1901" x2="136.64" y2="47.1901" gradientUnits="userSpaceOnUse">
<stop stop-color="#221ECA"/>
<stop offset="1" stop-color="#6461DA"/>
</linearGradient>
<linearGradient id="paint11_linear_28_670" x1="53.8398" y1="81.94" x2="81.7998" y2="72.38" gradientUnits="userSpaceOnUse">
<stop stop-color="#93D8DE"/>
<stop offset="1" stop-color="#65C8D0"/>
</linearGradient>
<linearGradient id="paint12_linear_28_670" x1="55.0702" y1="21.13" x2="63.4502" y2="55.38" gradientUnits="userSpaceOnUse">
<stop stop-color="#93D8DE"/>
<stop offset="1" stop-color="#65C8D0"/>
</linearGradient>
<linearGradient id="paint13_linear_28_670" x1="100.77" y1="63.4001" x2="74.9001" y2="103.25" gradientUnits="userSpaceOnUse">
<stop stop-color="#221ECA"/>
<stop offset="1" stop-color="#6461DA"/>
</linearGradient>
</defs>
</svg>
