<svg width="166" height="158" viewBox="0 0 166 158" fill="none" xmlns="http://www.w3.org/2000/svg">
<path d="M16.32 121.009C15.67 120.139 14.87 119.489 13.92 119.049C12.97 118.619 11.98 118.399 10.94 118.399C9.75 118.399 8.64999 118.639 7.64999 119.129C6.64999 119.619 5.78002 120.269 5.05002 121.089C4.32002 121.909 3.75001 122.859 3.35001 123.939C2.94001 125.019 2.74002 126.149 2.74002 127.329C2.74002 128.589 2.94001 129.759 3.35001 130.839C3.75001 131.919 4.32001 132.859 5.04001 133.659C5.76001 134.459 6.62 135.089 7.62 135.559C8.62 136.029 9.73001 136.259 10.95 136.259C12.27 136.259 13.44 135.999 14.47 135.489C15.5 134.969 16.4 134.229 17.17 133.259L19.08 134.869C18.11 136.169 16.94 137.119 15.57 137.729C14.2 138.339 12.66 138.639 10.94 138.639C9.4 138.639 7.96 138.359 6.63 137.789C5.29 137.219 4.12999 136.439 3.14999 135.439C2.16999 134.439 1.4 133.249 0.839996 131.869C0.279996 130.489 0 128.989 0 127.349C0 125.709 0.270018 124.289 0.800018 122.919C1.34002 121.539 2.09 120.349 3.06 119.339C4.03 118.329 5.19002 117.529 6.52002 116.939C7.86002 116.349 9.32001 116.059 10.92 116.059C12.38 116.059 13.78 116.319 15.13 116.849C16.48 117.379 17.6 118.239 18.52 119.429L16.3 121.039L16.32 121.009Z" fill="black"/>
<path d="M34.9099 138.63C33.2699 138.63 31.7699 138.35 30.3999 137.78C29.0299 137.21 27.8499 136.43 26.8499 135.43C25.8499 134.43 25.0699 133.23 24.5099 131.85C23.9499 130.46 23.6699 128.96 23.6699 127.34C23.6699 125.72 23.9499 124.22 24.5099 122.83C25.0699 121.44 25.8499 120.25 26.8499 119.25C27.8499 118.25 29.0399 117.46 30.3999 116.9C31.7699 116.33 33.2699 116.05 34.9099 116.05C36.5499 116.05 38.0499 116.33 39.4199 116.9C40.7899 117.47 41.9699 118.25 42.9699 119.25C43.9699 120.25 44.7499 121.45 45.3099 122.83C45.8699 124.22 46.1499 125.72 46.1499 127.34C46.1499 128.96 45.8699 130.46 45.3099 131.85C44.7499 133.24 43.9699 134.43 42.9699 135.43C41.9699 136.43 40.7799 137.22 39.4199 137.78C38.0499 138.35 36.5499 138.63 34.9099 138.63ZM34.9099 136.26C36.1699 136.26 37.3099 136.03 38.3599 135.56C39.3999 135.09 40.2999 134.46 41.0499 133.65C41.7999 132.84 42.3799 131.89 42.7999 130.81C43.2099 129.73 43.4199 128.57 43.4199 127.33C43.4199 126.09 43.2099 124.94 42.7999 123.85C42.3799 122.77 41.7999 121.82 41.0499 121.01C40.2999 120.2 39.3999 119.56 38.3599 119.1C37.3199 118.63 36.1699 118.4 34.9099 118.4C33.6499 118.4 32.5099 118.63 31.4599 119.1C30.4199 119.57 29.5199 120.2 28.7699 121.01C28.0199 121.82 27.4399 122.77 27.0199 123.85C26.5999 124.93 26.3999 126.09 26.3999 127.33C26.3999 128.57 26.6099 129.72 27.0199 130.81C27.4299 131.89 28.0199 132.84 28.7699 133.65C29.5199 134.46 30.4099 135.1 31.4599 135.56C32.4999 136.03 33.6499 136.26 34.9099 136.26Z" fill="black"/>
<path d="M52.5195 116.579H56.3195L63.6095 133.429H63.6695L71.0195 116.579H74.7195V138.079H72.1695V120.039H72.1095L64.3995 138.079H62.8495L55.1395 120.039H55.0795V138.079H52.5295V116.579H52.5195Z" fill="black"/>
<path d="M82.3398 116.579H88.7198C89.7098 116.579 90.6598 116.679 91.5598 116.869C92.4598 117.059 93.2598 117.389 93.9598 117.839C94.6598 118.299 95.2199 118.899 95.6299 119.659C96.0399 120.419 96.2498 121.359 96.2498 122.469C96.2498 123.639 96.0299 124.619 95.5799 125.389C95.1299 126.159 94.5599 126.769 93.8599 127.209C93.1599 127.659 92.3999 127.969 91.5699 128.149C90.7399 128.329 89.9499 128.419 89.1999 128.419H84.8899V138.079H82.3398V116.579ZM84.8899 126.059H89.1999C90.4799 126.059 91.5098 125.769 92.3098 125.189C93.1098 124.609 93.5099 123.719 93.5099 122.499C93.5099 121.279 93.1098 120.389 92.3098 119.809C91.5098 119.229 90.4699 118.949 89.1999 118.949H84.8899V126.059Z" fill="black"/>
<path d="M107.37 116.579H109.77L118.91 138.079H115.93L113.74 132.799H102.99L100.77 138.079H97.8799L107.36 116.579H107.37ZM108.52 119.859H108.46L104 130.429H112.78L108.53 119.859H108.52Z" fill="black"/>
<path d="M124.04 116.579H127.26L139.71 134.439H139.77V116.579H142.32V138.079H139.1L126.65 120.219H126.59V138.079H124.04V116.579Z" fill="black"/>
<path d="M155.01 128.819L146.99 116.579H150.24L156.28 126.299L162.51 116.579H165.58L157.56 128.819V138.079H155.01V128.819Z" fill="black"/>
<path d="M52.5803 148.489C52.3603 148.179 52.0803 147.939 51.7403 147.749C51.4003 147.559 50.9803 147.469 50.4903 147.469C50.2403 147.469 49.9903 147.509 49.7303 147.579C49.4703 147.649 49.2403 147.769 49.0303 147.929C48.8203 148.089 48.6503 148.289 48.5203 148.519C48.3903 148.759 48.3303 149.039 48.3303 149.369C48.3303 149.699 48.3903 149.959 48.5203 150.169C48.6403 150.379 48.8103 150.559 49.0103 150.709C49.2103 150.859 49.4503 150.979 49.7103 151.079C49.9703 151.179 50.2503 151.269 50.5303 151.369C50.8803 151.479 51.2403 151.609 51.5903 151.739C51.9503 151.869 52.2703 152.049 52.5503 152.259C52.8403 152.469 53.0703 152.749 53.2503 153.079C53.4303 153.409 53.5203 153.829 53.5203 154.329C53.5203 154.829 53.4203 155.269 53.2303 155.639C53.0403 156.009 52.7903 156.309 52.4803 156.549C52.1703 156.789 51.8203 156.969 51.4203 157.079C51.0203 157.189 50.6203 157.249 50.2203 157.249C49.9103 157.249 49.6103 157.219 49.3003 157.159C48.9903 157.099 48.7003 156.999 48.4303 156.879C48.1503 156.759 47.9003 156.599 47.6603 156.409C47.4203 156.219 47.2103 155.999 47.0303 155.749L47.9203 155.089C48.1403 155.449 48.4503 155.759 48.8403 155.999C49.2403 156.239 49.7003 156.369 50.2403 156.369C50.5003 156.369 50.7603 156.329 51.0303 156.249C51.3003 156.169 51.5403 156.039 51.7503 155.879C51.9603 155.709 52.1403 155.509 52.2803 155.259C52.4203 155.019 52.4903 154.729 52.4903 154.409C52.4903 154.059 52.4203 153.759 52.2803 153.529C52.1403 153.299 51.9603 153.099 51.7303 152.939C51.5003 152.779 51.2403 152.649 50.9403 152.549C50.6403 152.449 50.3303 152.339 50.0103 152.229C49.6803 152.129 49.3503 152.009 49.0203 151.869C48.7003 151.739 48.4003 151.559 48.1503 151.349C47.8903 151.129 47.6803 150.869 47.5303 150.549C47.3703 150.229 47.2903 149.849 47.2903 149.389C47.2903 148.899 47.3903 148.479 47.5803 148.129C47.7803 147.779 48.0303 147.489 48.3503 147.259C48.6703 147.029 49.0103 146.859 49.4003 146.759C49.7803 146.649 50.1603 146.599 50.5303 146.599C51.2203 146.599 51.8003 146.719 52.2903 146.959C52.7803 147.199 53.1403 147.489 53.3903 147.829L52.5703 148.489H52.5803Z" fill="#FFC005"/>
<path d="M59.6501 156.09H64.3801V157.01H58.6201V146.87H59.6501V156.09Z" fill="#FFC005"/>
<path d="M78.3808 151.929C78.3808 152.699 78.2508 153.409 77.9808 154.059C77.7108 154.709 77.3408 155.269 76.8708 155.739C76.4008 156.209 75.8408 156.579 75.1908 156.849C74.5508 157.119 73.8508 157.249 73.0908 157.249C72.3308 157.249 71.6408 157.119 70.9908 156.849C70.3508 156.579 69.7908 156.209 69.3108 155.739C68.8408 155.269 68.4708 154.709 68.2008 154.059C67.9308 153.409 67.8008 152.699 67.8008 151.929C67.8008 151.159 67.9308 150.449 68.2008 149.799C68.4708 149.149 68.8408 148.589 69.3108 148.119C69.7808 147.649 70.3408 147.279 70.9908 147.009C71.6308 146.739 72.3308 146.609 73.0908 146.609C73.8508 146.609 74.5408 146.739 75.1908 147.009C75.8308 147.279 76.3908 147.649 76.8708 148.119C77.3408 148.589 77.7108 149.149 77.9808 149.799C78.2508 150.449 78.3808 151.159 78.3808 151.929ZM77.2908 151.929C77.2908 151.339 77.1908 150.779 77.0008 150.239C76.8108 149.709 76.5308 149.239 76.1708 148.829C75.8108 148.419 75.3708 148.099 74.8508 147.859C74.3308 147.619 73.7408 147.499 73.1008 147.499C72.4608 147.499 71.8708 147.619 71.3508 147.859C70.8308 148.099 70.3908 148.419 70.0308 148.829C69.6708 149.239 69.3908 149.709 69.2008 150.239C69.0108 150.769 68.9108 151.339 68.9108 151.929C68.9108 152.519 69.0108 153.079 69.2008 153.619C69.3908 154.149 69.6708 154.619 70.0308 155.019C70.3908 155.419 70.8308 155.739 71.3508 155.979C71.8708 156.219 72.4508 156.339 73.1008 156.339C73.7508 156.339 74.3308 156.219 74.8508 155.979C75.3708 155.739 75.8108 155.419 76.1708 155.019C76.5308 154.619 76.8108 154.149 77.0008 153.619C77.1908 153.089 77.2908 152.519 77.2908 151.929Z" fill="#FFC005"/>
<path d="M91.0906 148.69C90.7406 148.32 90.3206 148.03 89.8306 147.82C89.3406 147.61 88.7806 147.51 88.1506 147.51C87.5206 147.51 86.9206 147.63 86.4006 147.87C85.8806 148.11 85.4406 148.43 85.0806 148.84C84.7206 149.25 84.4406 149.72 84.2406 150.25C84.0406 150.78 83.9506 151.35 83.9506 151.94C83.9506 152.53 84.0506 153.09 84.2406 153.63C84.4406 154.16 84.7106 154.63 85.0806 155.03C85.4406 155.43 85.8806 155.75 86.4006 155.99C86.9206 156.23 87.5106 156.35 88.1506 156.35C88.7206 156.35 89.2506 156.29 89.7306 156.16C90.2106 156.04 90.5906 155.88 90.8906 155.69V152.61H88.5306V151.69H91.9206V156.27C91.3706 156.61 90.7706 156.85 90.1306 157.02C89.4906 157.18 88.8306 157.26 88.1406 157.26C87.3806 157.26 86.6706 157.13 86.0206 156.86C85.3706 156.59 84.8106 156.22 84.3406 155.75C83.8706 155.28 83.5106 154.72 83.2406 154.07C82.9806 153.42 82.8506 152.71 82.8506 151.94C82.8506 151.17 82.9806 150.46 83.2506 149.81C83.5206 149.16 83.8906 148.6 84.3606 148.13C84.8306 147.66 85.3906 147.29 86.0406 147.02C86.6806 146.75 87.3806 146.62 88.1406 146.62C88.9506 146.62 89.6606 146.74 90.2606 146.98C90.8606 147.22 91.3806 147.56 91.8106 147.99L91.0906 148.71V148.69Z" fill="#FFC005"/>
<path d="M97.3507 156.999H96.2207L100.601 146.859H101.601L105.951 156.999H104.801L103.681 154.339H98.4407L97.3407 156.999H97.3507ZM98.8407 153.389H103.311L101.081 147.999L98.8507 153.389H98.8407Z" fill="#FFC005"/>
<path d="M117.501 155.499H117.531V146.859H118.561V156.999H117.271L111.371 148.279H111.341V156.999H110.311V146.859H111.601L117.501 155.499Z" fill="#FFC005"/>
<path d="M71.9301 36.1L78.6401 42.76C80.9401 45.05 84.6601 45.05 86.9601 42.76L92.4701 37.29L93.6301 36.06L125.88 3.81002C127.09 2.60002 126.23 0.52002 124.52 0.52002H113.19C109.55 0.52002 106.05 1.97002 103.48 4.54002L82.8001 25.22L75.9701 18.39C73.4501 15.87 70.0301 14.45 66.4701 14.45H50.3701L71.9701 36.05L71.9301 36.09V36.1Z" fill="#FF0C5D"/>
<path d="M93.67 65.5201L86.97 58.8601C84.66 56.5701 80.94 56.5701 78.64 58.8601L73.13 64.3301L71.97 65.5601L39.72 97.8101C38.51 99.0201 39.37 101.09 41.08 101.09H52.54C56.11 101.09 59.53 99.6701 62.05 97.1501L82.81 76.3901L89.55 83.1301C92.13 85.7101 95.63 87.1601 99.28 87.1601H115.24L93.64 65.5601L93.68 65.5201H93.67Z" fill="#FFC005"/>
<path d="M57.2198 50.8098L50.4398 57.5898C47.8898 60.1398 46.4498 63.6098 46.4498 67.2198V83.2398L68.0498 61.6398L68.0898 61.6798L74.7698 54.9498C77.0598 52.6398 77.0598 48.9098 74.7498 46.6098L35.7698 7.6998C34.5698 6.4998 32.5098 7.3498 32.5098 9.0498V20.4398C32.5098 24.0998 33.9298 27.5298 36.5198 30.1198L57.2097 50.8098H57.2198Z" fill="#221ECA"/>
<path d="M129.13 71.5399L108.5 50.8099L115.35 43.9299C117.83 41.4399 119.22 38.0599 119.22 34.5499V18.3599L97.7099 39.9699L97.6699 39.9299L91.0899 46.5899C88.8199 48.8799 88.8099 52.5699 91.0599 54.8799L97.6799 61.6799L97.7199 61.6399L129.9 93.9699C131.08 95.1499 133.09 94.3199 133.09 92.6499V81.1099C133.09 77.4899 131.69 74.0899 129.14 71.5299L129.13 71.5399Z" fill="#221ECA"/>
</svg>
