<svg width="166" height="158" viewBox="0 0 166 158" fill="none" xmlns="http://www.w3.org/2000/svg">
<path d="M16.32 121.01C15.67 120.14 14.87 119.49 13.92 119.05C12.97 118.62 11.98 118.4 10.94 118.4C9.75 118.4 8.64996 118.64 7.64996 119.13C6.64996 119.62 5.77999 120.27 5.04999 121.09C4.31999 121.91 3.74998 122.86 3.34998 123.94C2.93998 125.02 2.73999 126.15 2.73999 127.33C2.73999 128.59 2.93998 129.76 3.34998 130.84C3.74998 131.92 4.31998 132.86 5.03998 133.66C5.75998 134.46 6.62 135.09 7.62 135.56C8.62 136.03 9.73001 136.26 10.95 136.26C12.27 136.26 13.44 136 14.47 135.49C15.5 134.97 16.4 134.23 17.17 133.26L19.08 134.87C18.11 136.17 16.94 137.12 15.57 137.73C14.2 138.34 12.66 138.64 10.94 138.64C9.4 138.64 7.96 138.36 6.63 137.79C5.29 137.22 4.12996 136.44 3.14996 135.44C2.16996 134.44 1.39997 133.25 0.839966 131.87C0.279966 130.49 0 128.99 0 127.35C0 125.71 0.269988 124.29 0.799988 122.92C1.33999 121.54 2.09 120.35 3.06 119.34C4.03 118.33 5.19002 117.53 6.52002 116.94C7.86002 116.35 9.31998 116.06 10.92 116.06C12.38 116.06 13.78 116.32 15.13 116.85C16.48 117.38 17.6 118.24 18.52 119.43L16.3 121.04L16.32 121.01Z" fill="#1B1464"/>
<path d="M34.9099 138.63C33.2699 138.63 31.7699 138.35 30.3999 137.78C29.0299 137.21 27.8499 136.43 26.8499 135.43C25.8499 134.43 25.0699 133.23 24.5099 131.85C23.9499 130.46 23.6699 128.96 23.6699 127.34C23.6699 125.72 23.9499 124.22 24.5099 122.83C25.0699 121.44 25.8499 120.25 26.8499 119.25C27.8499 118.25 29.0399 117.46 30.3999 116.9C31.7699 116.33 33.2699 116.05 34.9099 116.05C36.5499 116.05 38.0499 116.33 39.4199 116.9C40.7899 117.47 41.9699 118.25 42.9699 119.25C43.9699 120.25 44.7499 121.45 45.3099 122.83C45.8699 124.22 46.1499 125.72 46.1499 127.34C46.1499 128.96 45.8699 130.46 45.3099 131.85C44.7499 133.24 43.9699 134.43 42.9699 135.43C41.9699 136.43 40.7799 137.22 39.4199 137.78C38.0499 138.35 36.5499 138.63 34.9099 138.63ZM34.9099 136.26C36.1699 136.26 37.3099 136.03 38.3599 135.56C39.3999 135.09 40.2999 134.46 41.0499 133.65C41.7999 132.84 42.3799 131.89 42.7999 130.81C43.2099 129.73 43.4199 128.57 43.4199 127.33C43.4199 126.09 43.2099 124.94 42.7999 123.85C42.3799 122.77 41.7999 121.82 41.0499 121.01C40.2999 120.2 39.3999 119.56 38.3599 119.1C37.3199 118.63 36.1699 118.4 34.9099 118.4C33.6499 118.4 32.51 118.63 31.46 119.1C30.42 119.57 29.52 120.2 28.77 121.01C28.02 121.82 27.44 122.77 27.02 123.85C26.6 124.93 26.3999 126.09 26.3999 127.33C26.3999 128.57 26.61 129.72 27.02 130.81C27.43 131.89 28.02 132.84 28.77 133.65C29.52 134.46 30.41 135.1 31.46 135.56C32.5 136.03 33.6499 136.26 34.9099 136.26Z" fill="#1B1464"/>
<path d="M52.5195 116.58H56.3195L63.6095 133.43H63.6695L71.0195 116.58H74.7195V138.08H72.1695V120.04H72.1095L64.3995 138.08H62.8495L55.1395 120.04H55.0795V138.08H52.5295V116.58H52.5195Z" fill="#1B1464"/>
<path d="M82.3398 116.58H88.7198C89.7098 116.58 90.6599 116.68 91.5599 116.87C92.4599 117.06 93.2599 117.39 93.9599 117.84C94.6599 118.3 95.2099 118.9 95.6299 119.66C96.0399 120.42 96.2499 121.36 96.2499 122.47C96.2499 123.64 96.0299 124.62 95.5799 125.39C95.1299 126.16 94.5599 126.77 93.8599 127.21C93.1599 127.66 92.3999 127.97 91.5699 128.15C90.7399 128.33 89.9499 128.42 89.1999 128.42H84.8899V138.08H82.3398V116.58ZM84.8899 126.06H89.1999C90.4799 126.06 91.5099 125.77 92.3099 125.19C93.1099 124.61 93.5099 123.72 93.5099 122.5C93.5099 121.28 93.1099 120.39 92.3099 119.81C91.5099 119.23 90.4699 118.95 89.1999 118.95H84.8899V126.06Z" fill="#1B1464"/>
<path d="M107.36 116.58H109.76L118.9 138.08H115.92L113.73 132.8H102.98L100.76 138.08H97.8701L107.35 116.58H107.36ZM108.51 119.86H108.45L103.99 130.43H112.77L108.52 119.86H108.51Z" fill="#1B1464"/>
<path d="M124.04 116.58H127.26L139.71 134.44H139.77V116.58H142.32V138.08H139.1L126.65 120.22H126.59V138.08H124.04V116.58Z" fill="#1B1464"/>
<path d="M155.01 128.82L146.99 116.58H150.24L156.28 126.3L162.51 116.58H165.58L157.56 128.82V138.08H155.01V128.82Z" fill="#1B1464"/>
<path d="M52.5803 148.49C52.3603 148.18 52.0803 147.94 51.7403 147.75C51.4003 147.56 50.9803 147.47 50.4903 147.47C50.2403 147.47 49.9903 147.51 49.7303 147.58C49.4703 147.65 49.2403 147.77 49.0303 147.93C48.8203 148.09 48.6503 148.29 48.5203 148.52C48.3903 148.76 48.3303 149.04 48.3303 149.37C48.3303 149.7 48.3903 149.96 48.5203 150.17C48.6403 150.38 48.8103 150.56 49.0103 150.71C49.2103 150.86 49.4503 150.98 49.7103 151.08C49.9703 151.18 50.2503 151.27 50.5303 151.37C50.8803 151.48 51.2403 151.61 51.5903 151.74C51.9503 151.87 52.2703 152.05 52.5503 152.26C52.8403 152.47 53.0703 152.75 53.2503 153.08C53.4303 153.41 53.5203 153.83 53.5203 154.33C53.5203 154.83 53.4203 155.27 53.2303 155.64C53.0403 156.01 52.7903 156.31 52.4803 156.55C52.1703 156.79 51.8203 156.97 51.4203 157.08C51.0203 157.19 50.6203 157.25 50.2203 157.25C49.9103 157.25 49.6103 157.22 49.3003 157.16C48.9903 157.1 48.7003 157 48.4303 156.88C48.1503 156.76 47.9003 156.6 47.6603 156.41C47.4203 156.22 47.2103 156 47.0303 155.75L47.9203 155.09C48.1403 155.45 48.4503 155.76 48.8403 156C49.2403 156.24 49.7003 156.37 50.2403 156.37C50.5003 156.37 50.7603 156.33 51.0303 156.25C51.3003 156.17 51.5403 156.04 51.7503 155.88C51.9603 155.71 52.1403 155.51 52.2803 155.26C52.4203 155.02 52.4903 154.73 52.4903 154.41C52.4903 154.06 52.4203 153.76 52.2803 153.53C52.1403 153.3 51.9603 153.1 51.7303 152.94C51.5003 152.78 51.2403 152.65 50.9403 152.55C50.6403 152.45 50.3303 152.34 50.0103 152.23C49.6803 152.13 49.3503 152.01 49.0203 151.87C48.6903 151.74 48.4003 151.56 48.1503 151.35C47.8903 151.13 47.6803 150.87 47.5303 150.55C47.3703 150.23 47.2903 149.85 47.2903 149.39C47.2903 148.9 47.3903 148.48 47.5803 148.13C47.7803 147.78 48.0303 147.49 48.3503 147.26C48.6703 147.03 49.0103 146.86 49.4003 146.76C49.7803 146.65 50.1603 146.6 50.5303 146.6C51.2203 146.6 51.8003 146.72 52.2903 146.96C52.7803 147.2 53.1403 147.49 53.3903 147.83L52.5703 148.49H52.5803Z" fill="url(#paint0_linear_28_648)"/>
<path d="M59.6404 156.09H64.3704V157.01H58.6104V146.87H59.6404V156.09Z" fill="url(#paint1_linear_28_648)"/>
<path d="M78.3808 151.929C78.3808 152.699 78.2508 153.409 77.9808 154.059C77.7108 154.709 77.3408 155.27 76.8708 155.74C76.4008 156.21 75.8408 156.58 75.1908 156.85C74.5408 157.12 73.8508 157.249 73.0908 157.249C72.3308 157.249 71.6408 157.12 70.9908 156.85C70.3508 156.58 69.7908 156.21 69.3108 155.74C68.8408 155.27 68.4708 154.709 68.2008 154.059C67.9308 153.409 67.8008 152.699 67.8008 151.929C67.8008 151.159 67.9308 150.449 68.2008 149.799C68.4708 149.149 68.8408 148.589 69.3108 148.119C69.7808 147.649 70.3408 147.279 70.9908 147.009C71.6308 146.739 72.3308 146.609 73.0908 146.609C73.8508 146.609 74.5408 146.739 75.1908 147.009C75.8308 147.279 76.3908 147.649 76.8708 148.119C77.3408 148.589 77.7108 149.149 77.9808 149.799C78.2508 150.449 78.3808 151.159 78.3808 151.929ZM77.2908 151.929C77.2908 151.339 77.1908 150.78 77.0008 150.24C76.8108 149.71 76.5308 149.239 76.1708 148.829C75.8108 148.419 75.3708 148.099 74.8508 147.859C74.3308 147.619 73.7408 147.499 73.1008 147.499C72.4608 147.499 71.8708 147.619 71.3508 147.859C70.8308 148.099 70.3908 148.419 70.0308 148.829C69.6708 149.239 69.3908 149.71 69.2008 150.24C69.0108 150.77 68.9108 151.339 68.9108 151.929C68.9108 152.519 69.0108 153.079 69.2008 153.619C69.3908 154.149 69.6708 154.62 70.0308 155.02C70.3908 155.42 70.8308 155.739 71.3508 155.979C71.8708 156.219 72.4608 156.339 73.1008 156.339C73.7408 156.339 74.3308 156.219 74.8508 155.979C75.3708 155.739 75.8108 155.42 76.1708 155.02C76.5308 154.62 76.8108 154.149 77.0008 153.619C77.1908 153.089 77.2908 152.519 77.2908 151.929Z" fill="url(#paint2_linear_28_648)"/>
<path d="M91.0799 148.69C90.7299 148.32 90.3099 148.03 89.8199 147.82C89.3299 147.61 88.7699 147.51 88.1399 147.51C87.5099 147.51 86.9099 147.63 86.3899 147.87C85.8699 148.11 85.4299 148.43 85.0699 148.84C84.7099 149.25 84.4299 149.72 84.2299 150.25C84.0299 150.78 83.9399 151.35 83.9399 151.94C83.9399 152.53 84.0399 153.09 84.2299 153.63C84.4299 154.16 84.6999 154.63 85.0699 155.03C85.4299 155.43 85.8699 155.75 86.3899 155.99C86.9099 156.23 87.4899 156.35 88.1399 156.35C88.7099 156.35 89.2398 156.29 89.7198 156.16C90.1998 156.04 90.5799 155.88 90.8799 155.69V152.61H88.5199V151.69H91.9099V156.27C91.3599 156.61 90.7599 156.85 90.1199 157.02C89.4799 157.18 88.8199 157.26 88.1299 157.26C87.3699 157.26 86.6599 157.13 86.0099 156.86C85.3599 156.59 84.7999 156.22 84.3299 155.75C83.8599 155.28 83.4999 154.72 83.2299 154.07C82.9699 153.42 82.8398 152.71 82.8398 151.94C82.8398 151.17 82.9699 150.46 83.2399 149.81C83.5099 149.16 83.8799 148.6 84.3499 148.13C84.8199 147.66 85.3798 147.29 86.0298 147.02C86.6698 146.75 87.3699 146.62 88.1299 146.62C88.9399 146.62 89.6499 146.74 90.2499 146.98C90.8499 147.22 91.3699 147.56 91.7999 147.99L91.0799 148.71V148.69Z" fill="url(#paint3_linear_28_648)"/>
<path d="M97.3399 156.999H96.21L100.59 146.859H101.59L105.94 156.999H104.79L103.67 154.339H98.4299L97.33 156.999H97.3399ZM98.83 153.389H103.3L101.07 147.999L98.8399 153.389H98.83Z" fill="url(#paint4_linear_28_648)"/>
<path d="M117.501 155.499H117.531V146.859H118.561V156.999H117.271L111.371 148.279H111.341V156.999H110.311V146.859H111.601L117.501 155.499Z" fill="url(#paint5_linear_28_648)"/>
<path d="M95.41 59.31C92.76 65.19 88.33 70.09 82.8 73.31C78.25 75.97 72.9701 77.48 67.3201 77.48C62.8301 77.48 58.5601 76.52 54.7101 74.78C44.2501 70.08 36.9 59.71 36.55 47.59C36.55 47.29 36.54 46.99 36.54 46.7C36.54 46.41 36.54 46.1 36.55 45.81C36.89 33.69 44.2501 23.32 54.7101 18.62C52.9801 22.47 52.0201 26.73 52.0201 31.22C52.0201 36.86 53.5401 42.15 56.1901 46.7C59.4101 52.23 64.3101 56.67 70.1901 59.31C74.0401 61.04 78.3 62.01 82.8 62.01C87.3 62.01 91.57 61.05 95.41 59.31Z" fill="url(#paint6_linear_28_648)"/>
<path d="M129.06 46.6999C129.06 46.9999 129.06 47.2999 129.05 47.5899C128.71 59.7099 121.35 70.0799 110.9 74.7799C112.63 70.9299 113.59 66.6599 113.59 62.1699C113.59 56.5299 112.07 51.2399 109.42 46.6899C106.2 41.1499 101.3 36.7199 95.4202 34.0799C91.5702 32.3499 87.3102 31.3899 82.8102 31.3899C78.3102 31.3899 74.0502 32.3499 70.2002 34.0799C72.8402 28.1999 77.2802 23.3099 82.8002 20.0799C87.3502 17.4199 92.6302 15.9099 98.2802 15.9099C102.78 15.9099 107.05 16.8699 110.9 18.6099C121.35 23.3099 128.71 33.6799 129.05 45.7999C129.05 46.0999 129.06 46.3999 129.06 46.6899V46.6999Z" fill="url(#paint7_linear_28_648)"/>
<path d="M110.89 18.6199C107.04 16.8899 102.77 15.9199 98.2698 15.9199C92.6298 15.9199 87.3397 17.4399 82.7897 20.0899C77.2597 23.3099 72.8298 28.2099 70.1898 34.0899C68.4598 37.9399 67.4897 42.2099 67.4897 46.6999C67.4897 51.1899 68.4497 55.4599 70.1797 59.2999C64.2997 56.6599 59.4097 52.2199 56.1797 46.6999C53.5197 42.1499 52.0098 36.8599 52.0098 31.2199C52.0098 26.7299 52.9698 22.4599 54.6998 18.6199C59.3998 8.15994 69.7797 0.799942 81.8997 0.449942C82.1997 0.449942 82.4997 0.439941 82.7897 0.439941C83.0797 0.439941 83.3897 0.439942 83.6797 0.449942C95.7997 0.789942 106.18 8.14994 110.88 18.6199H110.89Z" fill="url(#paint8_linear_28_648)"/>
<path d="M113.58 62.18C113.58 66.67 112.62 70.94 110.89 74.79C106.19 85.25 95.8099 92.61 83.6899 92.95C83.3899 92.95 83.0899 92.96 82.7999 92.96C82.5099 92.96 82.1999 92.96 81.9099 92.95C69.7899 92.61 59.41 85.25 54.71 74.79C58.56 76.52 62.8199 77.49 67.3199 77.49C72.9599 77.49 78.2499 75.97 82.7999 73.32C88.3299 70.1 92.7699 65.2 95.4099 59.32C97.1399 55.47 98.0999 51.21 98.0999 46.72C98.0999 42.23 97.1399 37.95 95.4099 34.11C101.29 36.75 106.19 41.19 109.41 46.72C112.07 51.27 113.58 56.56 113.58 62.2V62.18Z" fill="url(#paint9_linear_28_648)"/>
<defs>
<linearGradient id="paint0_linear_28_648" x1="47.0403" y1="151.93" x2="53.5303" y2="151.93" gradientUnits="userSpaceOnUse">
<stop stop-color="#93D8DE"/>
<stop offset="1" stop-color="#65C8D0"/>
</linearGradient>
<linearGradient id="paint1_linear_28_648" x1="58.6104" y1="151.93" x2="64.3704" y2="151.93" gradientUnits="userSpaceOnUse">
<stop stop-color="#93D8DE"/>
<stop offset="1" stop-color="#65C8D0"/>
</linearGradient>
<linearGradient id="paint2_linear_28_648" x1="67.8108" y1="-10.0005" x2="78.3808" y2="-10.0005" gradientUnits="userSpaceOnUse">
<stop stop-color="#93D8DE"/>
<stop offset="1" stop-color="#65C8D0"/>
</linearGradient>
<linearGradient id="paint3_linear_28_648" x1="82.8498" y1="-10.0002" x2="91.9099" y2="-10.0002" gradientUnits="userSpaceOnUse">
<stop stop-color="#93D8DE"/>
<stop offset="1" stop-color="#65C8D0"/>
</linearGradient>
<linearGradient id="paint4_linear_28_648" x1="96.21" y1="151.929" x2="105.95" y2="151.929" gradientUnits="userSpaceOnUse">
<stop stop-color="#93D8DE"/>
<stop offset="1" stop-color="#65C8D0"/>
</linearGradient>
<linearGradient id="paint5_linear_28_648" x1="110.311" y1="151.929" x2="118.561" y2="151.929" gradientUnits="userSpaceOnUse">
<stop stop-color="#93D8DE"/>
<stop offset="1" stop-color="#65C8D0"/>
</linearGradient>
<linearGradient id="paint6_linear_28_648" x1="46.21" y1="35.82" x2="76.97" y2="71.47" gradientUnits="userSpaceOnUse">
<stop stop-color="#93D8DE"/>
<stop offset="1" stop-color="#65C8D0"/>
</linearGradient>
<linearGradient id="paint7_linear_28_648" x1="120.16" y1="54.2699" x2="96.3902" y2="31.8999" gradientUnits="userSpaceOnUse">
<stop stop-color="#93D8DE"/>
<stop offset="1" stop-color="#65C8D0"/>
</linearGradient>
<linearGradient id="paint8_linear_28_648" x1="52.0198" y1="29.8699" x2="110.89" y2="29.8699" gradientUnits="userSpaceOnUse">
<stop stop-color="#221ECA"/>
<stop offset="1" stop-color="#6461DA"/>
</linearGradient>
<linearGradient id="paint9_linear_28_648" x1="105.49" y1="37.55" x2="75.43" y2="87.18" gradientUnits="userSpaceOnUse">
<stop stop-color="#221ECA"/>
<stop offset="1" stop-color="#6461DA"/>
</linearGradient>
</defs>
</svg>
