<svg width="166" height="158" viewBox="0 0 166 158" fill="none" xmlns="http://www.w3.org/2000/svg">
<path d="M16.32 120.92C15.67 120.05 14.87 119.4 13.92 118.96C12.97 118.53 11.98 118.31 10.94 118.31C9.75 118.31 8.65002 118.55 7.65002 119.04C6.65002 119.53 5.77999 120.18 5.04999 121C4.31999 121.82 3.75004 122.77 3.35004 123.85C2.94004 124.93 2.73999 126.06 2.73999 127.24C2.73999 128.5 2.94004 129.67 3.35004 130.75C3.75004 131.83 4.32004 132.77 5.04004 133.57C5.76004 134.37 6.62 135 7.62 135.47C8.62 135.94 9.73001 136.17 10.95 136.17C12.27 136.17 13.44 135.91 14.47 135.4C15.5 134.88 16.4 134.14 17.17 133.17L19.08 134.78C18.11 136.08 16.94 137.03 15.57 137.64C14.2 138.25 12.66 138.55 10.94 138.55C9.4 138.55 7.96 138.27 6.63 137.7C5.29 137.13 4.13002 136.35 3.15002 135.35C2.17002 134.35 1.40003 133.16 0.840027 131.78C0.280027 130.4 0 128.9 0 127.26C0 125.62 0.269988 124.2 0.799988 122.83C1.33999 121.45 2.09 120.26 3.06 119.25C4.03 118.24 5.19002 117.44 6.52002 116.85C7.86002 116.26 9.31998 115.97 10.92 115.97C12.38 115.97 13.78 116.23 15.13 116.76C16.48 117.29 17.6 118.15 18.52 119.34L16.3 120.95L16.32 120.92Z" fill="black"/>
<path d="M34.9001 138.53C33.2601 138.53 31.7601 138.25 30.3901 137.68C29.0201 137.11 27.8401 136.33 26.8401 135.33C25.8401 134.33 25.0601 133.13 24.5001 131.75C23.9401 130.36 23.6602 128.86 23.6602 127.24C23.6602 125.62 23.9401 124.12 24.5001 122.73C25.0601 121.34 25.8401 120.15 26.8401 119.15C27.8401 118.15 29.0301 117.36 30.3901 116.8C31.7601 116.23 33.2601 115.95 34.9001 115.95C36.5401 115.95 38.0402 116.23 39.4102 116.8C40.7802 117.37 41.9601 118.15 42.9601 119.15C43.9601 120.15 44.7401 121.35 45.3001 122.73C45.8601 124.12 46.1401 125.62 46.1401 127.24C46.1401 128.86 45.8601 130.36 45.3001 131.75C44.7401 133.14 43.9601 134.33 42.9601 135.33C41.9601 136.33 40.7702 137.12 39.4102 137.68C38.0402 138.25 36.5401 138.53 34.9001 138.53ZM34.9001 136.16C36.1501 136.16 37.3002 135.93 38.3502 135.46C39.3902 134.99 40.2902 134.36 41.0402 133.55C41.7902 132.74 42.3702 131.79 42.7902 130.71C43.2002 129.63 43.4102 128.47 43.4102 127.23C43.4102 125.99 43.2002 124.84 42.7902 123.75C42.3702 122.67 41.7902 121.72 41.0402 120.91C40.2902 120.1 39.3902 119.46 38.3502 119C37.3102 118.53 36.1601 118.3 34.9001 118.3C33.6401 118.3 32.5001 118.53 31.4501 119C30.4101 119.47 29.5101 120.1 28.7601 120.91C28.0101 121.72 27.4301 122.67 27.0101 123.75C26.5901 124.83 26.3901 125.99 26.3901 127.23C26.3901 128.47 26.6001 129.62 27.0101 130.71C27.4201 131.79 28.0101 132.74 28.7601 133.55C29.5101 134.36 30.4001 135 31.4501 135.46C32.4901 135.93 33.6401 136.16 34.9001 136.16Z" fill="black"/>
<path d="M52.5195 116.48H56.3195L63.6095 133.33H63.6695L71.0195 116.48H74.7195V137.98H72.1695V119.94H72.1095L64.3995 137.98H62.8495L55.1395 119.94H55.0795V137.98H52.5295V116.48H52.5195Z" fill="black"/>
<path d="M82.3398 116.48H88.7198C89.7098 116.48 90.6598 116.58 91.5598 116.77C92.4598 116.96 93.2598 117.29 93.9598 117.74C94.6598 118.2 95.2198 118.8 95.6298 119.56C96.0398 120.32 96.2498 121.26 96.2498 122.37C96.2498 123.54 96.0298 124.52 95.5798 125.29C95.1298 126.06 94.5598 126.67 93.8598 127.11C93.1598 127.56 92.3998 127.87 91.5698 128.05C90.7398 128.23 89.9498 128.32 89.1998 128.32H84.8898V137.98H82.3398V116.48ZM84.8898 125.96H89.1998C90.4798 125.96 91.5098 125.67 92.3098 125.09C93.1098 124.51 93.5098 123.62 93.5098 122.4C93.5098 121.18 93.1098 120.29 92.3098 119.71C91.5098 119.13 90.4698 118.85 89.1998 118.85H84.8898V125.96Z" fill="black"/>
<path d="M107.36 116.48H109.76L118.9 137.98H115.92L113.73 132.7H102.98L100.76 137.98H97.8701L107.35 116.48H107.36ZM108.51 119.76H108.45L103.99 130.33H112.77L108.52 119.76H108.51Z" fill="black"/>
<path d="M124.03 116.48H127.25L139.7 134.34H139.76V116.48H142.31V137.98H139.09L126.64 120.12H126.58V137.98H124.03V116.48Z" fill="black"/>
<path d="M155.01 128.72L146.99 116.48H150.24L156.28 126.2L162.51 116.48H165.58L157.56 128.72V137.98H155.01V128.72Z" fill="black"/>
<path d="M52.5803 148.4C52.3603 148.09 52.0802 147.85 51.7402 147.66C51.4002 147.47 50.9802 147.38 50.4902 147.38C50.2402 147.38 49.9902 147.42 49.7302 147.49C49.4702 147.56 49.2403 147.68 49.0303 147.84C48.8203 148 48.6503 148.2 48.5203 148.43C48.3903 148.67 48.3303 148.95 48.3303 149.28C48.3303 149.61 48.3903 149.87 48.5203 150.08C48.6403 150.29 48.8103 150.47 49.0103 150.62C49.2103 150.77 49.4503 150.89 49.7103 150.99C49.9703 151.09 50.2503 151.18 50.5303 151.28C50.8803 151.39 51.2403 151.52 51.5903 151.65C51.9503 151.78 52.2702 151.96 52.5502 152.17C52.8402 152.38 53.0702 152.66 53.2502 152.99C53.4302 153.32 53.5203 153.74 53.5203 154.24C53.5203 154.74 53.4202 155.18 53.2302 155.55C53.0402 155.92 52.7902 156.22 52.4802 156.46C52.1702 156.7 51.8202 156.88 51.4202 156.99C51.0202 157.1 50.6203 157.16 50.2203 157.16C49.9103 157.16 49.6102 157.13 49.3002 157.07C48.9902 157.01 48.7002 156.91 48.4302 156.79C48.1502 156.67 47.9003 156.51 47.6603 156.32C47.4203 156.13 47.2103 155.91 47.0303 155.66L47.9202 155C48.1402 155.36 48.4503 155.67 48.8403 155.91C49.2403 156.15 49.7002 156.28 50.2402 156.28C50.5002 156.28 50.7603 156.24 51.0303 156.16C51.3003 156.08 51.5402 155.95 51.7502 155.79C51.9602 155.62 52.1403 155.42 52.2803 155.17C52.4203 154.93 52.4902 154.64 52.4902 154.32C52.4902 153.97 52.4203 153.67 52.2803 153.44C52.1403 153.21 51.9602 153.01 51.7302 152.85C51.5002 152.69 51.2402 152.56 50.9402 152.46C50.6402 152.36 50.3303 152.25 50.0103 152.14C49.6803 152.04 49.3503 151.92 49.0203 151.78C48.6903 151.65 48.4003 151.47 48.1503 151.26C47.8903 151.04 47.6803 150.78 47.5303 150.46C47.3803 150.14 47.2903 149.76 47.2903 149.3C47.2903 148.81 47.3903 148.39 47.5803 148.04C47.7803 147.69 48.0303 147.4 48.3503 147.17C48.6703 146.94 49.0103 146.77 49.4003 146.67C49.7803 146.56 50.1603 146.51 50.5303 146.51C51.2203 146.51 51.8003 146.63 52.2903 146.87C52.7803 147.11 53.1403 147.4 53.3903 147.74L52.5703 148.4H52.5803Z" fill="#FFC005"/>
<path d="M59.6404 155.99H64.3704V156.91H58.6104V146.77H59.6404V155.99Z" fill="#FFC005"/>
<path d="M78.3798 151.83C78.3798 152.6 78.2498 153.31 77.9798 153.96C77.7098 154.61 77.3398 155.17 76.8698 155.64C76.3998 156.11 75.8398 156.48 75.1898 156.75C74.5498 157.02 73.8498 157.15 73.0898 157.15C72.3298 157.15 71.6398 157.02 70.9898 156.75C70.3498 156.48 69.7898 156.11 69.3098 155.64C68.8398 155.17 68.4698 154.61 68.1998 153.96C67.9298 153.31 67.7998 152.6 67.7998 151.83C67.7998 151.06 67.9298 150.35 68.1998 149.7C68.4698 149.05 68.8398 148.49 69.3098 148.02C69.7798 147.55 70.3398 147.18 70.9898 146.91C71.6298 146.64 72.3298 146.51 73.0898 146.51C73.8498 146.51 74.5398 146.64 75.1898 146.91C75.8298 147.18 76.3898 147.55 76.8698 148.02C77.3398 148.49 77.7098 149.05 77.9798 149.7C78.2498 150.35 78.3798 151.06 78.3798 151.83ZM77.2899 151.83C77.2899 151.24 77.1898 150.68 76.9998 150.14C76.8098 149.61 76.5298 149.14 76.1698 148.73C75.8098 148.32 75.3699 148 74.8499 147.76C74.3299 147.52 73.7399 147.4 73.0999 147.4C72.4599 147.4 71.8699 147.52 71.3499 147.76C70.8299 148 70.3898 148.32 70.0298 148.73C69.6698 149.14 69.3898 149.61 69.1998 150.14C69.0098 150.67 68.9099 151.24 68.9099 151.83C68.9099 152.42 69.0098 152.98 69.1998 153.52C69.3898 154.05 69.6698 154.52 70.0298 154.92C70.3898 155.32 70.8299 155.64 71.3499 155.88C71.8699 156.12 72.4599 156.24 73.0999 156.24C73.7399 156.24 74.3299 156.12 74.8499 155.88C75.3699 155.64 75.8098 155.32 76.1698 154.92C76.5298 154.52 76.8098 154.05 76.9998 153.52C77.1898 152.99 77.2899 152.42 77.2899 151.83Z" fill="#FFC005"/>
<path d="M91.0798 148.6C90.7298 148.23 90.3098 147.94 89.8198 147.73C89.3298 147.52 88.7698 147.42 88.1398 147.42C87.5098 147.42 86.9098 147.54 86.3898 147.78C85.8698 148.02 85.4298 148.34 85.0698 148.75C84.7098 149.16 84.4298 149.63 84.2298 150.16C84.0298 150.69 83.9398 151.26 83.9398 151.85C83.9398 152.44 84.0398 153 84.2298 153.54C84.4298 154.07 84.6998 154.54 85.0698 154.94C85.4298 155.34 85.8698 155.66 86.3898 155.9C86.9098 156.14 87.4998 156.26 88.1398 156.26C88.7098 156.26 89.2398 156.2 89.7198 156.07C90.1998 155.95 90.5798 155.79 90.8798 155.6V152.52H88.5198V151.6H91.9099V156.18C91.3599 156.52 90.7598 156.76 90.1198 156.93C89.4798 157.09 88.8198 157.17 88.1298 157.17C87.3698 157.17 86.6598 157.04 86.0098 156.77C85.3598 156.5 84.7998 156.13 84.3298 155.66C83.8598 155.19 83.4998 154.63 83.2298 153.98C82.9698 153.33 82.8398 152.62 82.8398 151.85C82.8398 151.08 82.9698 150.37 83.2398 149.72C83.5098 149.07 83.8799 148.51 84.3499 148.04C84.8199 147.57 85.3798 147.2 86.0298 146.93C86.6698 146.66 87.3698 146.53 88.1298 146.53C88.9398 146.53 89.6498 146.65 90.2498 146.89C90.8498 147.13 91.3698 147.47 91.7998 147.9L91.0798 148.62V148.6Z" fill="#FFC005"/>
<path d="M97.34 156.91H96.21L100.59 146.77H101.59L105.94 156.91H104.79L103.67 154.25H98.4299L97.33 156.91H97.34ZM98.83 153.3H103.3L101.07 147.91L98.84 153.3H98.83Z" fill="#FFC005"/>
<path d="M117.49 155.4H117.52V146.76H118.55V156.9H117.26L111.36 148.18H111.33V156.9H110.3V146.76H111.59L117.49 155.4Z" fill="#FFC005"/>
<path d="M121.55 47.8599C121.55 48.3999 121.55 49.1699 121.55 49.8399V49.9699C121.55 50.2299 121.55 50.4699 121.55 50.6699C121.55 50.9799 121.53 51.2999 121.52 51.6299C121.29 59.1399 120.22 65.6899 118.35 71.2699C116.48 76.8499 113.81 81.4599 110.35 85.1699C107.19 88.5499 103.45 91.1999 99.0901 93.1499C94.7301 95.0999 89.74 96.3499 84.11 96.8599C84.07 96.8599 84.02 96.8799 83.98 96.8899C82.06 97.0499 80.0701 97.1399 78.0101 97.1399H73.2701C66.1001 97.1399 59.8201 96.1299 54.4301 94.1499C49.0301 92.1699 44.51 89.2299 40.8 85.2999C37.1 81.3899 34.3 76.4299 32.42 70.3699C30.53 64.2999 29.5801 57.1299 29.5801 48.8399C29.5801 40.5499 30.54 33.2799 32.42 27.1599C34.3 21.0399 37.1 16.0299 40.8 12.0699C44.52 8.08987 49.0401 5.10987 54.4401 3.10987C59.3101 1.29987 64.9101 0.299873 71.2501 0.119873C70.2101 0.489873 69.1901 0.879873 68.2101 1.31987C63.5101 3.38987 59.4201 6.25987 56.0001 9.87987C52.0701 14.0299 49.1201 19.2099 47.1301 25.3799C45.1401 31.5399 44.1 38.6799 43.98 46.7999C43.98 47.3099 43.9701 47.8399 43.9701 48.3899C43.9701 48.9399 43.97 49.4599 43.98 49.9799C44.06 54.1999 44.4701 58.0099 45.1901 61.4099C45.4601 62.7399 45.7601 64.0199 46.1201 65.2199C47.2501 68.9499 48.85 72.0699 50.98 74.5399C53.33 77.2699 56.4201 79.3099 60.1601 80.6399C61.8901 81.2499 63.7701 81.7199 65.7701 82.0499C65.9201 82.0699 66.0701 82.0999 66.2101 82.1199C66.3001 82.1299 66.3901 82.1399 66.4701 82.1599C68.5601 82.4599 70.7701 82.6099 73.1401 82.6199H77.8801C78.4601 82.6199 79.0401 82.6199 79.6001 82.5899C81.3301 82.5499 82.9701 82.3999 84.5301 82.1799C87.8601 81.7099 90.8301 80.8499 93.4301 79.5699C96.0401 78.2899 98.2701 76.5799 100.08 74.4799C102.47 71.7299 104.2 68.1799 105.34 63.8799C106.48 59.5799 107.04 54.5199 107.04 48.6999C107.04 42.8799 106.49 37.8299 105.36 33.5199C104.23 29.2199 102.52 25.6499 100.17 22.8599C98.37 20.7399 96.1501 19.0199 93.5301 17.7299C93.4301 17.6899 93.33 17.6499 93.23 17.5999H95.3401C97.6601 17.5999 99.8101 17.7599 101.79 18.0399C101.84 18.0399 101.9 18.0499 101.96 18.0599C102.09 18.0799 102.23 18.1099 102.36 18.1299C102.69 18.1799 103 18.2399 103.32 18.2999C103.51 18.3399 103.69 18.3699 103.88 18.4099C103.93 18.4199 103.98 18.4399 104.04 18.4499L104.15 18.4699C104.25 18.4899 104.34 18.5099 104.42 18.5399C104.6 18.5799 104.78 18.6199 104.95 18.6699C105.42 18.7899 105.88 18.9199 106.33 19.0599C106.42 19.0899 106.5 19.1099 106.59 19.1399C106.89 19.2399 107.19 19.3399 107.48 19.4399C110.78 20.6499 113.38 22.4299 115.38 24.7899C117.28 27.0399 118.81 30.0499 119.88 33.8099C120.12 34.6499 120.34 35.5499 120.53 36.4699C121.04 39.0799 121.37 41.9899 121.49 45.2199C121.49 45.5499 121.51 45.8599 121.52 46.1499C121.52 46.3599 121.52 46.5899 121.52 46.8499C121.52 47.1199 121.52 47.4099 121.52 47.8899L121.55 47.8599Z" fill="#221ECA"/>
<path d="M139.06 48.3998C139.06 56.7298 138.1 63.9598 136.22 70.0698C134.34 76.1898 131.54 81.1998 127.84 85.1598C124.12 89.1398 119.6 92.1198 114.2 94.1198C109.27 95.9498 103.58 96.9498 97.1605 97.1098C98.2305 96.7298 99.2904 96.3198 100.32 95.8598C105.02 93.7598 109.1 90.8598 112.53 87.1898C116.32 83.1498 119.2 78.1298 121.17 72.2098C123.16 66.2898 124.25 59.4598 124.5 51.7298C124.5 51.4298 124.52 51.1098 124.53 50.7598C124.53 50.4698 124.53 50.2198 124.53 49.9998V49.8398C124.53 49.1498 124.53 48.3698 124.53 47.8598C124.53 47.4098 124.53 47.1598 124.53 46.8398V46.7998C124.53 46.5898 124.53 46.3398 124.53 46.0598C124.53 45.6998 124.51 45.3898 124.5 45.0998V45.0798C124.31 40.0898 123.66 35.7398 122.54 32.0098C121.42 28.2798 119.81 25.1598 117.68 22.6898C115.33 19.9598 112.24 17.9298 108.5 16.5898C104.77 15.2598 100.39 14.6198 95.3704 14.6098H90.6304C88.3204 14.6098 86.1404 14.7598 84.1104 15.0498C80.7804 15.5198 77.8104 16.3798 75.2104 17.6598C72.6104 18.9398 70.3704 20.6498 68.5604 22.7498C66.1804 25.4998 64.4404 29.0498 63.3004 33.3498C62.1604 37.6498 61.6005 42.7098 61.6005 48.5298C61.6005 54.3498 62.1505 59.3998 63.2805 63.7098C64.4105 68.0098 66.1204 71.5798 68.4604 74.3698C70.2604 76.4898 72.4805 78.2098 75.1005 79.4998C75.2005 79.5398 75.3005 79.5798 75.4005 79.6298H73.1605C68.4605 79.6298 64.4505 78.9998 61.1505 77.7898C57.8505 76.5798 55.2504 74.7998 53.2504 72.4398C51.3504 70.1898 49.8104 67.1798 48.7404 63.4198C47.6704 59.6598 47.0504 55.1398 46.9504 49.9098C46.9504 49.3898 46.9404 48.8798 46.9404 48.3698C46.9404 47.8598 46.9404 47.3298 46.9504 46.8198C47.0604 38.9298 48.0804 32.0798 49.9604 26.2698C51.8404 20.4598 54.5805 15.6898 58.1605 11.8998C61.3205 8.55982 65.0604 5.93982 69.4204 4.00982C73.7804 2.07982 78.7705 0.849824 84.4005 0.339824C86.4005 0.159824 88.4804 0.0698242 90.6404 0.0698242H95.3804C102.55 0.0698242 108.83 1.06982 114.22 3.04982C119.62 5.02982 124.14 7.96982 127.86 11.8998C129.7 13.8598 131.33 16.0698 132.73 18.5598C134.13 21.0498 135.31 23.7998 136.25 26.8298C138.13 32.8998 139.09 40.0698 139.09 48.3598L139.06 48.3998Z" fill="#FFC005"/>
</svg>
