<svg width="166" height="152" viewBox="0 0 166 152" fill="none" xmlns="http://www.w3.org/2000/svg">
<g clip-path="url(#clip0_28_716)">
<path d="M16.3102 115.24C15.6602 114.37 14.8602 113.72 13.9102 113.28C12.9602 112.85 11.9702 112.63 10.9302 112.63C9.74023 112.63 8.64023 112.87 7.64023 113.36C6.64023 113.85 5.77023 114.5 5.04023 115.32C4.31023 116.14 3.74023 117.09 3.34023 118.17C2.93023 119.25 2.73023 120.38 2.73023 121.56C2.73023 122.82 2.93023 123.99 3.34023 125.07C3.74023 126.15 4.31024 127.09 5.03023 127.89C5.75023 128.69 6.61023 129.32 7.61023 129.79C8.61024 130.26 9.72023 130.49 10.9402 130.49C12.2602 130.49 13.4302 130.23 14.4602 129.72C15.4902 129.2 16.3902 128.46 17.1602 127.49L19.0702 129.1C18.1002 130.4 16.9302 131.35 15.5602 131.96C14.1902 132.57 12.6502 132.87 10.9302 132.87C9.39023 132.87 7.95023 132.59 6.62023 132.02C5.28023 131.45 4.12023 130.67 3.14023 129.67C2.16023 128.67 1.39023 127.48 0.830234 126.1C0.270234 124.72 -0.00976562 123.22 -0.00976562 121.58C-0.00976562 119.94 0.260234 118.52 0.790234 117.15C1.33023 115.77 2.08023 114.58 3.05023 113.57C4.02023 112.56 5.18023 111.76 6.51023 111.17C7.85023 110.58 9.31023 110.29 10.9102 110.29C12.3702 110.29 13.7702 110.55 15.1202 111.08C16.4702 111.61 17.5902 112.47 18.5102 113.66L16.2902 115.27L16.3102 115.24Z" fill="black"/>
<path d="M34.8904 132.86C33.2504 132.86 31.7504 132.58 30.3804 132.01C29.0104 131.44 27.8304 130.66 26.8304 129.66C25.8304 128.66 25.0504 127.46 24.4904 126.08C23.9304 124.69 23.6504 123.19 23.6504 121.57C23.6504 119.95 23.9304 118.45 24.4904 117.06C25.0504 115.67 25.8304 114.48 26.8304 113.48C27.8304 112.48 29.0204 111.69 30.3804 111.13C31.7504 110.56 33.2504 110.28 34.8904 110.28C36.5304 110.28 38.0304 110.56 39.4004 111.13C40.7704 111.7 41.9504 112.48 42.9504 113.48C43.9504 114.48 44.7304 115.68 45.2904 117.06C45.8504 118.44 46.1304 119.95 46.1304 121.57C46.1304 123.19 45.8504 124.69 45.2904 126.08C44.7304 127.47 43.9504 128.66 42.9504 129.66C41.9504 130.66 40.7604 131.45 39.4004 132.01C38.0304 132.58 36.5304 132.86 34.8904 132.86ZM34.8904 130.49C36.1504 130.49 37.2904 130.26 38.3404 129.79C39.3804 129.32 40.2804 128.69 41.0304 127.88C41.7804 127.07 42.3604 126.12 42.7804 125.04C43.1904 123.96 43.4004 122.8 43.4004 121.56C43.4004 120.32 43.1904 119.17 42.7804 118.08C42.3604 117 41.7804 116.05 41.0304 115.24C40.2804 114.43 39.3904 113.79 38.3404 113.33C37.3004 112.86 36.1504 112.63 34.8904 112.63C33.6304 112.63 32.4904 112.86 31.4404 113.33C30.4004 113.8 29.5004 114.43 28.7504 115.24C28.0004 116.05 27.4204 117 27.0004 118.08C26.5804 119.16 26.3804 120.32 26.3804 121.56C26.3804 122.8 26.5904 123.95 27.0004 125.04C27.4104 126.12 28.0004 127.07 28.7504 127.88C29.5004 128.69 30.3904 129.33 31.4404 129.79C32.4804 130.26 33.6304 130.49 34.8904 130.49Z" fill="black"/>
<path d="M52.5098 110.81H56.3098L63.5998 127.66H63.6598L71.0098 110.81H74.7098V132.31H72.1598V114.27H72.0998L64.3898 132.31H62.8398L55.1298 114.27H55.0698V132.31H52.5198V110.81H52.5098Z" fill="black"/>
<path d="M82.3301 110.81H88.7101C89.7001 110.81 90.6501 110.91 91.5501 111.1C92.4501 111.29 93.2501 111.62 93.9501 112.07C94.6501 112.53 95.2101 113.13 95.6201 113.89C96.0301 114.65 96.2401 115.59 96.2401 116.7C96.2401 117.87 96.0201 118.85 95.5701 119.62C95.1201 120.39 94.5501 121 93.8501 121.44C93.1501 121.89 92.3901 122.2 91.5601 122.38C90.7301 122.56 89.9401 122.65 89.1901 122.65H84.8801V132.31H82.3301V110.81ZM84.8801 120.29H89.1901C90.4701 120.29 91.5001 120 92.3001 119.42C93.1001 118.84 93.5001 117.95 93.5001 116.73C93.5001 115.51 93.1001 114.62 92.3001 114.04C91.5001 113.46 90.4601 113.18 89.1901 113.18H84.8801V120.29Z" fill="black"/>
<path d="M107.35 110.81H109.75L118.89 132.31H115.91L113.72 127.03H102.97L100.75 132.31H97.8604L107.34 110.81H107.35ZM108.5 114.09H108.44L103.98 124.66H112.76L108.51 114.09H108.5Z" fill="black"/>
<path d="M124.021 110.81H127.241L139.691 128.67H139.751V110.81H142.301V132.31H139.081L126.631 114.45H126.571V132.31H124.021V110.81Z" fill="black"/>
<path d="M155 123.05L146.98 110.81H150.23L156.27 120.53L162.5 110.81H165.57L157.55 123.05V132.31H155V123.05Z" fill="black"/>
<path d="M52.5705 142.72C52.3505 142.41 52.0705 142.17 51.7305 141.98C51.3905 141.79 50.9705 141.7 50.4805 141.7C50.2305 141.7 49.9805 141.74 49.7205 141.81C49.4605 141.89 49.2305 142 49.0205 142.16C48.8105 142.32 48.6405 142.52 48.5105 142.75C48.3805 142.99 48.3205 143.27 48.3205 143.6C48.3205 143.93 48.3805 144.19 48.5105 144.4C48.6305 144.61 48.8005 144.79 49.0005 144.94C49.2005 145.09 49.4405 145.21 49.7005 145.31C49.9605 145.41 50.2405 145.5 50.5205 145.6C50.8705 145.71 51.2305 145.84 51.5805 145.97C51.9405 146.1 52.2605 146.28 52.5405 146.49C52.8305 146.7 53.0605 146.98 53.2405 147.31C53.4205 147.64 53.5105 148.06 53.5105 148.56C53.5105 149.06 53.4105 149.5 53.2205 149.87C53.0305 150.24 52.7805 150.54 52.4705 150.78C52.1605 151.02 51.8105 151.2 51.4105 151.31C51.0105 151.42 50.6105 151.48 50.2105 151.48C49.9005 151.48 49.6005 151.45 49.2905 151.39C48.9805 151.33 48.6905 151.23 48.4205 151.11C48.1405 150.99 47.8905 150.83 47.6505 150.64C47.4105 150.45 47.2005 150.23 47.0205 149.98L47.9105 149.32C48.1305 149.68 48.4405 149.99 48.8305 150.23C49.2305 150.47 49.6905 150.6 50.2305 150.6C50.4905 150.6 50.7505 150.56 51.0205 150.48C51.2905 150.4 51.5305 150.27 51.7405 150.11C51.9505 149.94 52.1305 149.74 52.2705 149.49C52.4105 149.25 52.4805 148.96 52.4805 148.64C52.4805 148.29 52.4105 147.99 52.2705 147.76C52.1305 147.53 51.9505 147.33 51.7205 147.17C51.4905 147.01 51.2305 146.88 50.9305 146.78C50.6305 146.68 50.3205 146.57 50.0005 146.46C49.6705 146.36 49.3405 146.24 49.0105 146.1C48.6805 145.97 48.3905 145.79 48.1405 145.58C47.8805 145.36 47.6705 145.1 47.5205 144.78C47.3705 144.46 47.2805 144.08 47.2805 143.62C47.2805 143.13 47.3805 142.71 47.5705 142.36C47.7705 142.01 48.0205 141.72 48.3405 141.49C48.6505 141.26 49.0005 141.09 49.3905 140.99C49.7705 140.88 50.1505 140.83 50.5205 140.83C51.2105 140.83 51.8005 140.95 52.2805 141.2C52.7705 141.44 53.1305 141.73 53.3805 142.07L52.5605 142.73L52.5705 142.72Z" fill="#FFC005"/>
<path d="M59.6306 150.31H64.3606V151.23H58.6006V141.09H59.6306V150.32V150.31Z" fill="#FFC005"/>
<path d="M78.3603 146.16C78.3603 146.93 78.2303 147.64 77.9603 148.29C77.6903 148.94 77.3203 149.5 76.8503 149.97C76.3803 150.44 75.8203 150.81 75.1703 151.08C74.5303 151.35 73.8303 151.48 73.0703 151.48C72.3103 151.48 71.6203 151.35 70.9703 151.08C70.3303 150.81 69.7703 150.44 69.2903 149.97C68.8203 149.5 68.4503 148.94 68.1803 148.29C67.9103 147.64 67.7803 146.93 67.7803 146.16C67.7803 145.39 67.9103 144.68 68.1803 144.03C68.4503 143.38 68.8203 142.82 69.2903 142.35C69.7603 141.88 70.3203 141.51 70.9703 141.24C71.6103 140.97 72.3103 140.84 73.0703 140.84C73.8303 140.84 74.5203 140.97 75.1703 141.24C75.8103 141.51 76.3703 141.88 76.8503 142.35C77.3203 142.82 77.6903 143.38 77.9603 144.03C78.2303 144.68 78.3603 145.39 78.3603 146.16ZM77.2703 146.16C77.2703 145.57 77.1703 145.01 76.9803 144.47C76.7903 143.94 76.5103 143.47 76.1503 143.06C75.7903 142.65 75.3503 142.33 74.8303 142.09C74.3103 141.85 73.7203 141.73 73.0803 141.73C72.4403 141.73 71.8503 141.85 71.3303 142.09C70.8103 142.33 70.3703 142.65 70.0103 143.06C69.6503 143.47 69.3703 143.94 69.1803 144.47C68.9903 145 68.8903 145.57 68.8903 146.16C68.8903 146.75 68.9903 147.31 69.1803 147.85C69.3703 148.38 69.6503 148.85 70.0103 149.25C70.3703 149.65 70.8103 149.97 71.3303 150.21C71.8503 150.45 72.4403 150.57 73.0803 150.57C73.7203 150.57 74.3103 150.45 74.8303 150.21C75.3503 149.97 75.7903 149.65 76.1503 149.25C76.5103 148.85 76.7903 148.38 76.9803 147.85C77.1703 147.32 77.2703 146.75 77.2703 146.16Z" fill="#FFC005"/>
<path d="M91.0701 142.92C90.7201 142.55 90.3001 142.26 89.8101 142.05C89.3201 141.84 88.7601 141.74 88.1301 141.74C87.5001 141.74 86.9001 141.86 86.3801 142.1C85.8601 142.34 85.4201 142.66 85.0601 143.07C84.7001 143.48 84.4201 143.95 84.2201 144.48C84.0201 145.01 83.9301 145.58 83.9301 146.17C83.9301 146.76 84.0301 147.32 84.2201 147.86C84.4201 148.39 84.7001 148.86 85.0601 149.26C85.4201 149.66 85.8601 149.98 86.3801 150.22C86.9001 150.46 87.4901 150.58 88.1301 150.58C88.7001 150.58 89.2301 150.52 89.7101 150.39C90.1901 150.27 90.5701 150.11 90.8701 149.92V146.84H88.5101V145.92H91.9001V150.5C91.3501 150.84 90.7501 151.08 90.1101 151.25C89.4701 151.41 88.8101 151.49 88.1201 151.49C87.3601 151.49 86.6501 151.36 86.0001 151.09C85.3501 150.82 84.7901 150.45 84.3201 149.98C83.8501 149.51 83.4901 148.95 83.2201 148.3C82.9601 147.65 82.8301 146.94 82.8301 146.17C82.8301 145.4 82.9601 144.69 83.2301 144.04C83.5001 143.39 83.8701 142.83 84.3401 142.36C84.8101 141.89 85.3701 141.52 86.0201 141.25C86.6601 140.98 87.3601 140.85 88.1201 140.85C88.9301 140.85 89.6401 140.97 90.2401 141.21C90.8401 141.45 91.3601 141.79 91.7901 142.22L91.0701 142.94V142.92Z" fill="#FFC005"/>
<path d="M97.3302 151.23H96.2002L100.58 141.09H101.58L105.93 151.23H104.78L103.66 148.57H98.4202L97.3202 151.23H97.3302ZM98.8202 147.62H103.29L101.06 142.23L98.8302 147.62H98.8202Z" fill="#FFC005"/>
<path d="M117.48 149.73H117.51V141.09H118.54V151.23H117.25L111.35 142.51H111.32V151.23H110.29V141.09H111.58L117.48 149.73Z" fill="#FFC005"/>
<path d="M107.24 9.98994L105.61 5.84994C105.61 5.84994 104.94 3.90994 104.61 3.31994C104.46 3.03994 104.11 2.63994 103.8 2.32994C102.2 0.729944 99.9501 0.0399445 97.9501 0.679945C96.7101 1.07994 95.5301 1.62994 95.5301 1.62994C95.5301 1.62994 95.5301 1.62994 95.5201 1.62994L91.3901 3.43994C90.0401 4.02994 88.6601 4.46994 87.2401 4.76994C84.2901 5.38994 81.2501 5.38994 78.3201 4.76994C76.9001 4.46994 75.5101 4.02994 74.1601 3.43994L70.2901 1.74994C70.2901 1.74994 68.1101 0.689945 67.3401 0.459945C65.4201 -0.110055 63.2701 0.739944 61.7501 2.25994C61.4901 2.51994 61.0701 3.07994 60.9001 3.39994C60.5501 4.06994 59.9301 5.93994 59.9301 5.93994L58.3301 10.0099C57.7901 11.3799 57.1201 12.6699 56.3301 13.8899C57.4701 13.6499 58.7401 13.8099 60.1301 14.4199L66.2901 17.1099L71.4901 19.3799L71.6901 19.4699L77.9001 22.1699C81.0101 23.5299 84.5501 23.5299 87.6601 22.1699L93.8701 19.4599L94.0701 19.3699L99.2701 17.0999L105.43 14.4099C106.82 13.8099 108.09 13.6299 109.23 13.8799C108.44 12.6599 107.77 11.3699 107.23 9.99994L107.24 9.98994Z" fill="#221ECA"/>
<path d="M119.38 71.13L123.52 69.5L126.05 68.5H126.07C126.42 68.26 126.73 68 127.04 67.69C128.64 66.09 129.22 63.85 128.78 61.8V61.79L127.75 59.42C127.75 59.42 127.75 59.42 127.75 59.41L125.94 55.28C125.35 53.93 124.91 52.55 124.61 51.13C123.99 48.18 123.99 45.14 124.61 42.21C124.91 40.79 125.35 39.4 125.94 38.05L127.63 34.18L128.92 31.23C129.24 29.26 128.64 27.16 127.12 25.64C126.86 25.38 126.57 25.14 126.28 24.93L123.45 23.82L119.38 22.22C118.01 21.68 116.72 21.01 115.5 20.22C115.74 21.36 115.58 22.63 114.97 24.02L112.28 30.18L110.01 35.38L109.92 35.58L107.22 41.79C105.86 44.9 105.86 48.44 107.22 51.55L109.93 57.76L110.02 57.96L112.29 63.16L114.98 69.32C115.58 70.71 115.76 71.98 115.51 73.12C116.73 72.33 118.02 71.66 119.39 71.12L119.38 71.13Z" fill="#221ECA"/>
<path d="M58.2302 83.2798L59.8602 87.4198C59.8602 87.4198 60.5302 89.3598 60.8602 89.9498C61.0102 90.2298 61.3602 90.6298 61.6702 90.9398C63.2702 92.5398 65.5202 93.2298 67.5202 92.5898C68.7602 92.1898 69.9402 91.6398 69.9402 91.6398C69.9402 91.6398 69.9402 91.6398 69.9502 91.6398L74.0802 89.8398C75.4302 89.2498 76.8102 88.8098 78.2302 88.5098C81.1802 87.8898 84.2202 87.8898 87.1502 88.5098C88.5702 88.8098 89.9602 89.2498 91.3102 89.8398L95.1802 91.5298C95.1802 91.5298 97.3602 92.5898 98.1302 92.8198C100.05 93.3898 102.2 92.5398 103.72 91.0198C103.98 90.7598 104.4 90.1998 104.57 89.8798C104.92 89.2098 105.54 87.3398 105.54 87.3398L107.14 83.2698C107.68 81.8998 108.35 80.6098 109.14 79.3898C108 79.6298 106.73 79.4698 105.34 78.8598L99.1802 76.1698L93.9802 73.8998L93.7802 73.8098L87.5702 71.1098C84.4602 69.7498 80.9202 69.7498 77.8102 71.1098L71.6002 73.8198L71.4002 73.9098L66.2002 76.1798L60.0402 78.8698C58.6502 79.4698 57.3802 79.6498 56.2402 79.3998C57.0302 80.6198 57.7002 81.9098 58.2402 83.2798H58.2302Z" fill="#221ECA"/>
<path d="M46.0903 22.1399L41.9503 23.7699L39.4203 24.7699H39.4003C39.0503 25.0099 38.7403 25.2699 38.4303 25.5799C36.8303 27.1799 36.2503 29.4199 36.6903 31.4699V31.4799L37.7203 33.8499C37.7203 33.8499 37.7203 33.8499 37.7203 33.8599L39.5303 37.9899C40.1203 39.3399 40.5603 40.7199 40.8603 42.1399C41.4803 45.0899 41.4803 48.1299 40.8603 51.0599C40.5603 52.4799 40.1203 53.8699 39.5303 55.2199L37.8403 59.0899L36.5503 62.0399C36.2303 64.0099 36.8303 66.1099 38.3503 67.6299C38.6103 67.8899 38.9003 68.1299 39.1903 68.3399L42.0203 69.4499L46.0903 71.0499C47.4603 71.5899 48.7503 72.2599 49.9703 73.0499C49.7303 71.9099 49.8903 70.6399 50.5003 69.2499L53.1903 63.0899L55.4603 57.8899L55.5503 57.6899L58.2503 51.4799C59.6103 48.3699 59.6103 44.8299 58.2503 41.7199L55.5403 35.5099L55.4503 35.3099L53.1803 30.1099L50.4903 23.9499C49.8903 22.5599 49.7103 21.2899 49.9603 20.1499C48.7403 20.9399 47.4503 21.6099 46.0803 22.1499L46.0903 22.1399Z" fill="#221ECA"/>
<path d="M74.1299 3.02L70.0199 1.22C70.0199 1.22 68.1599 0.31 67.4999 0.13C67.1899 0.04 66.6499 0 66.2199 0C63.9299 0 61.8399 1.12 60.8699 3C60.2699 4.17 59.8199 5.4 59.8199 5.4L58.1599 9.63C57.6199 11.01 56.9499 12.31 56.1499 13.54C54.4899 16.09 52.3199 18.26 49.7899 19.9C48.5699 20.7 47.2499 21.38 45.8699 21.92L41.8999 23.48C41.8999 23.48 39.5899 24.28 38.8699 24.66C37.0999 25.62 36.1699 27.76 36.1699 29.93C36.1699 30.3 36.2699 31 36.3799 31.34C36.6099 32.07 37.4899 33.84 37.4899 33.84L39.2599 37.88C39.7399 38.98 40.1199 40.11 40.4099 41.26C40.4899 41.57 40.8699 41.68 41.0899 41.44C41.7199 40.75 42.5899 40.18 43.6899 39.75L49.9999 37.27L55.3299 35.18L55.5399 35.1L61.8899 32.59C65.0799 31.34 67.5999 28.81 68.8499 25.64L71.3499 19.28L71.4299 19.07L73.5199 13.74L75.9999 7.43C76.4399 6.33 76.9999 5.46 77.6999 4.83C77.9399 4.61 77.8299 4.23 77.5199 4.15C76.3699 3.86 75.2499 3.48 74.1499 3L74.1299 3.02Z" fill="#FFC005"/>
<path d="M126.391 37.97L128.191 33.86L129.291 31.34V31.32C129.371 30.91 129.411 30.49 129.411 30.06C129.411 27.77 128.231 25.77 126.451 24.61L124.031 23.66L119.801 22C118.421 21.46 117.121 20.79 115.891 19.99C113.341 18.33 111.171 16.16 109.531 13.63C108.731 12.41 108.051 11.09 107.511 9.71001L105.951 5.74001L104.791 2.77001C104.791 2.77001 104.761 2.70001 104.731 2.66001C103.551 1.05001 101.651 0.0100098 99.5006 0.0100098C99.1306 0.0100098 98.7506 0.0400098 98.4006 0.11001L95.5906 1.33001L91.5506 3.10001C90.4506 3.58001 89.3206 3.96001 88.1706 4.25001C87.8606 4.33001 87.7506 4.71001 87.9906 4.93001C88.6806 5.56001 89.2506 6.43001 89.6806 7.53001L92.1606 13.84L94.2506 19.17L94.3306 19.38L96.8406 25.73C98.0906 28.92 100.621 31.44 103.791 32.69L110.151 35.19L110.361 35.27L115.691 37.36L122.001 39.84C123.101 40.28 123.971 40.84 124.601 41.54C124.821 41.78 125.201 41.67 125.281 41.36C125.571 40.21 125.951 39.09 126.431 37.99L126.391 37.97Z" fill="#FF0C5D"/>
<path d="M91.4405 90.25L95.5505 92.05C95.5505 92.05 97.4105 92.96 98.0705 93.15C98.3805 93.24 98.9205 93.28 99.3505 93.28C101.64 93.28 103.73 92.16 104.7 90.28C105.3 89.11 105.75 87.88 105.75 87.88L107.41 83.65C107.95 82.27 108.62 80.97 109.42 79.74C111.08 77.19 113.25 75.02 115.78 73.38C117 72.58 118.32 71.9 119.7 71.36L123.67 69.8C123.67 69.8 125.98 69 126.7 68.62C128.47 67.66 129.4 65.52 129.4 63.35C129.4 62.98 129.3 62.28 129.19 61.94C128.96 61.21 128.08 59.44 128.08 59.44L126.31 55.4C125.83 54.3 125.45 53.17 125.16 52.02C125.08 51.71 124.7 51.6 124.48 51.84C123.85 52.53 122.98 53.1 121.88 53.53L115.57 56.01L110.24 58.1L110.03 58.18L103.68 60.69C100.49 61.94 97.9705 64.47 96.7205 67.64L94.2205 74L94.1405 74.21L92.0505 79.54L89.5705 85.85C89.1305 86.95 88.5705 87.82 87.8705 88.45C87.6305 88.67 87.7405 89.05 88.0505 89.13C89.2005 89.42 90.3205 89.8 91.4205 90.28L91.4405 90.25Z" fill="#FFC005"/>
<path d="M39.1704 55.3L37.3704 59.41L36.2704 61.93V61.95C36.1904 62.36 36.1504 62.78 36.1504 63.21C36.1504 65.5 37.3304 67.5 39.1104 68.66L41.5304 69.61L45.7604 71.27C47.1404 71.81 48.4404 72.48 49.6704 73.28C52.2204 74.94 54.3904 77.11 56.0304 79.64C56.8304 80.86 57.5104 82.18 58.0504 83.56L59.6104 87.53L60.7704 90.5C60.7704 90.5 60.8004 90.57 60.8304 90.61C62.0104 92.22 63.9104 93.26 66.0604 93.26C66.4304 93.26 66.8104 93.23 67.1604 93.16L69.9704 91.94L74.0104 90.17C75.1104 89.69 76.2404 89.31 77.3904 89.02C77.7004 88.94 77.8104 88.56 77.5704 88.34C76.8804 87.71 76.3104 86.84 75.8804 85.74L73.4004 79.43L71.3104 74.1L71.2304 73.89L68.7204 67.54C67.4704 64.35 64.9404 61.83 61.7704 60.58L55.4104 58.08L55.2004 58L49.8704 55.91L43.5604 53.43C42.4604 52.99 41.5904 52.43 40.9604 51.73C40.7404 51.49 40.3604 51.6 40.2804 51.91C39.9904 53.06 39.6104 54.18 39.1304 55.28L39.1704 55.3Z" fill="#FF0C5D"/>
</g>
<defs>
<clipPath id="clip0_28_716">
<rect width="165.56" height="151.49" fill="white"/>
</clipPath>
</defs>
</svg>
